<svg width="629" height="472" viewBox="0 0 629 472" fill="none" xmlns="http://www.w3.org/2000/svg">
<ellipse cx="98.927" cy="92" rx="86.5401" ry="81" fill="#F7A9A9"/>
<g filter="url(#filter0_d_1_49)">
<rect x="87.5402" y="79" width="537.46" height="385" rx="10" fill="#FFFCFC"/>
</g>
<path d="M145.802 131.34C145.552 131.49 145.137 131.665 144.557 131.865C143.987 132.055 143.317 132.15 142.547 132.15C141.677 132.15 140.947 131.97 140.357 131.61C139.777 131.25 139.337 130.755 139.037 130.125C138.737 129.495 138.587 128.775 138.587 127.965V125.82C138.587 124.99 138.737 124.265 139.037 123.645C139.337 123.015 139.782 122.525 140.372 122.175C140.972 121.825 141.722 121.65 142.622 121.65C143.062 121.65 143.517 121.7 143.987 121.8C144.457 121.89 144.972 122.06 145.532 122.31L144.977 123.885C144.487 123.695 144.062 123.56 143.702 123.48C143.352 123.39 143.002 123.345 142.652 123.345C141.872 123.345 141.307 123.57 140.957 124.02C140.607 124.46 140.432 125.06 140.432 125.82V127.965C140.432 128.685 140.607 129.275 140.957 129.735C141.317 130.195 141.877 130.425 142.637 130.425C142.867 130.425 143.117 130.405 143.387 130.365C143.657 130.325 143.917 130.27 144.167 130.2V127.965H142.517V126.39H145.802V131.34ZM150.31 130.485C151.47 130.485 152.05 130.055 152.05 129.195C152.05 128.845 151.96 128.57 151.78 128.37C151.61 128.17 151.29 127.995 150.82 127.845L149.59 127.44C148.12 126.96 147.385 125.995 147.385 124.545C147.385 123.705 147.645 123.015 148.165 122.475C148.695 121.925 149.52 121.65 150.64 121.65C151.11 121.65 151.575 121.705 152.035 121.815C152.495 121.915 152.985 122.08 153.505 122.31L152.95 123.855C152.47 123.665 152.06 123.53 151.72 123.45C151.39 123.36 151.05 123.315 150.7 123.315C150.24 123.315 149.875 123.4 149.605 123.57C149.345 123.73 149.215 124.025 149.215 124.455C149.215 124.775 149.305 125.04 149.485 125.25C149.675 125.45 149.985 125.62 150.415 125.76L151.645 126.165C152.385 126.415 152.94 126.78 153.31 127.26C153.69 127.73 153.88 128.355 153.88 129.135C153.88 130.035 153.595 130.765 153.025 131.325C152.455 131.875 151.56 132.15 150.34 132.15C149.86 132.15 149.36 132.095 148.84 131.985C148.33 131.865 147.77 131.665 147.16 131.385L147.715 129.84C148.275 130.08 148.75 130.25 149.14 130.35C149.54 130.44 149.93 130.485 150.31 130.485ZM154.639 123.525V121.8H162.139V123.525H159.289V132H157.489V123.525H154.639ZM165.538 123.525V121.8H173.038V123.525H170.188V132H168.388V123.525H165.538ZM178.259 125.97C177.789 125.97 177.339 126.045 176.909 126.195C176.489 126.335 176.084 126.565 175.694 126.885V132H173.969V124.395H175.604V125.565C176.114 125.085 176.569 124.745 176.969 124.545C177.369 124.345 177.799 124.245 178.259 124.245V125.97ZM185.545 131.565C185.025 131.775 184.535 131.925 184.075 132.015C183.615 132.105 183.18 132.15 182.77 132.15C181.64 132.15 180.785 131.83 180.205 131.19C179.625 130.55 179.335 129.7 179.335 128.64V127.74C179.335 127.03 179.465 126.415 179.725 125.895C179.985 125.375 180.355 124.97 180.835 124.68C181.315 124.39 181.88 124.245 182.53 124.245C183.06 124.245 183.555 124.355 184.015 124.575C184.485 124.785 184.865 125.12 185.155 125.58C185.455 126.03 185.605 126.61 185.605 127.32C185.605 127.53 185.59 127.755 185.56 127.995C185.53 128.225 185.48 128.47 185.41 128.73H181C181.02 129.35 181.175 129.815 181.465 130.125C181.755 130.435 182.22 130.59 182.86 130.59C183.2 130.59 183.55 130.55 183.91 130.47C184.28 130.39 184.66 130.27 185.05 130.11L185.545 131.565ZM182.53 125.7C182.07 125.7 181.71 125.85 181.45 126.15C181.2 126.44 181.055 126.86 181.015 127.41H183.895C183.905 127.36 183.91 127.315 183.91 127.275C183.91 127.225 183.91 127.18 183.91 127.14C183.91 126.66 183.775 126.3 183.505 126.06C183.235 125.82 182.91 125.7 182.53 125.7ZM193.352 132.075C192.842 132.075 192.432 131.97 192.122 131.76C191.822 131.55 191.602 131.29 191.462 130.98C191.032 131.38 190.617 131.675 190.217 131.865C189.817 132.055 189.387 132.15 188.927 132.15C188.257 132.15 187.762 131.935 187.442 131.505C187.132 131.075 186.977 130.53 186.977 129.87C186.977 129.43 187.057 129.045 187.217 128.715C187.387 128.375 187.662 128.11 188.042 127.92C188.422 127.73 188.942 127.635 189.602 127.635C189.862 127.635 190.132 127.655 190.412 127.695C190.692 127.725 190.972 127.765 191.252 127.815V126.93C191.252 126.51 191.137 126.225 190.907 126.075C190.677 125.915 190.367 125.835 189.977 125.835C189.677 125.835 189.347 125.875 188.987 125.955C188.637 126.035 188.257 126.16 187.847 126.33L187.352 124.86C188.362 124.45 189.277 124.245 190.097 124.245C190.837 124.245 191.407 124.37 191.807 124.62C192.217 124.87 192.502 125.2 192.662 125.61C192.822 126.02 192.902 126.46 192.902 126.93V129.855C192.902 130.005 192.942 130.15 193.022 130.29C193.112 130.42 193.282 130.485 193.532 130.485H193.697V132.075H193.352ZM188.642 129.84C188.642 130.11 188.702 130.325 188.822 130.485C188.942 130.635 189.117 130.71 189.347 130.71C189.577 130.71 189.837 130.65 190.127 130.53C190.417 130.41 190.792 130.13 191.252 129.69V129.045C190.732 128.955 190.222 128.91 189.722 128.91C189.332 128.91 189.052 128.99 188.882 129.15C188.722 129.31 188.642 129.54 188.642 129.84ZM199.77 131.745C199.51 131.865 199.21 131.96 198.87 132.03C198.53 132.11 198.185 132.15 197.835 132.15C197.255 132.15 196.79 132.03 196.44 131.79C196.09 131.55 195.835 131.215 195.675 130.785C195.525 130.355 195.45 129.865 195.45 129.315V125.895H194.22V124.395H195.45V122.415H197.175V124.395H199.545V125.895H197.175V129.315C197.175 129.775 197.26 130.095 197.43 130.275C197.61 130.445 197.865 130.53 198.195 130.53C198.355 130.53 198.525 130.515 198.705 130.485C198.895 130.445 199.105 130.38 199.335 130.29L199.77 131.745ZM202.881 126.735V132H201.156V124.395H202.791V125.4C203.261 124.99 203.696 124.695 204.096 124.515C204.496 124.335 204.906 124.245 205.326 124.245C206.256 124.245 206.891 124.655 207.231 125.475C207.731 125.035 208.196 124.72 208.626 124.53C209.056 124.34 209.491 124.245 209.931 124.245C210.631 124.245 211.166 124.48 211.536 124.95C211.906 125.41 212.091 126.06 212.091 126.9V132H210.366V127.11C210.366 126.27 210.046 125.85 209.406 125.85C209.156 125.85 208.881 125.91 208.581 126.03C208.281 126.15 207.916 126.385 207.486 126.735V132H205.761V127.11C205.761 126.27 205.441 125.85 204.801 125.85C204.551 125.85 204.276 125.91 203.976 126.03C203.676 126.15 203.311 126.385 202.881 126.735ZM220.144 131.565C219.624 131.775 219.134 131.925 218.674 132.015C218.214 132.105 217.779 132.15 217.369 132.15C216.239 132.15 215.384 131.83 214.804 131.19C214.224 130.55 213.934 129.7 213.934 128.64V127.74C213.934 127.03 214.064 126.415 214.324 125.895C214.584 125.375 214.954 124.97 215.434 124.68C215.914 124.39 216.479 124.245 217.129 124.245C217.659 124.245 218.154 124.355 218.614 124.575C219.084 124.785 219.464 125.12 219.754 125.58C220.054 126.03 220.204 126.61 220.204 127.32C220.204 127.53 220.189 127.755 220.159 127.995C220.129 128.225 220.079 128.47 220.009 128.73H215.599C215.619 129.35 215.774 129.815 216.064 130.125C216.354 130.435 216.819 130.59 217.459 130.59C217.799 130.59 218.149 130.55 218.509 130.47C218.879 130.39 219.259 130.27 219.649 130.11L220.144 131.565ZM217.129 125.7C216.669 125.7 216.309 125.85 216.049 126.15C215.799 126.44 215.654 126.86 215.614 127.41H218.494C218.504 127.36 218.509 127.315 218.509 127.275C218.509 127.225 218.509 127.18 218.509 127.14C218.509 126.66 218.374 126.3 218.104 126.06C217.834 125.82 217.509 125.7 217.129 125.7ZM225.912 125.85C225.662 125.85 225.377 125.91 225.057 126.03C224.737 126.15 224.357 126.385 223.917 126.735V132H222.192V124.395H223.827V125.415C224.297 125.005 224.742 124.71 225.162 124.53C225.582 124.34 226.007 124.245 226.437 124.245C227.167 124.245 227.722 124.48 228.102 124.95C228.482 125.41 228.672 126.06 228.672 126.9V132H226.947V127.11C226.947 126.27 226.602 125.85 225.912 125.85ZM235.526 131.745C235.266 131.865 234.966 131.96 234.626 132.03C234.286 132.11 233.941 132.15 233.591 132.15C233.011 132.15 232.546 132.03 232.196 131.79C231.846 131.55 231.591 131.215 231.431 130.785C231.281 130.355 231.206 129.865 231.206 129.315V125.895H229.976V124.395H231.206V122.415H232.931V124.395H235.301V125.895H232.931V129.315C232.931 129.775 233.016 130.095 233.186 130.275C233.366 130.445 233.621 130.53 233.951 130.53C234.111 130.53 234.281 130.515 234.461 130.485C234.651 130.445 234.861 130.38 235.091 130.29L235.526 131.745ZM241.221 126.18H239.406V124.395H241.221V126.18ZM241.221 132H239.406V130.215H241.221V132Z" fill="#FF1B23"/>
<path d="M139.052 249V238.8H142.412C143.482 238.8 144.282 239.07 144.812 239.61C145.352 240.15 145.622 240.87 145.622 241.77V242.565C145.622 243.465 145.352 244.19 144.812 244.74C144.282 245.28 143.482 245.55 142.412 245.55H140.852V249H139.052ZM142.412 240.525H140.852V243.825H142.412C142.852 243.825 143.187 243.715 143.417 243.495C143.657 243.275 143.777 242.965 143.777 242.565V241.77C143.777 241.38 143.657 241.075 143.417 240.855C143.187 240.635 142.852 240.525 142.412 240.525ZM147.396 246.855V237.9H149.121V246.855C149.121 247.005 149.156 247.15 149.226 247.29C149.306 247.42 149.456 247.485 149.676 247.485H149.916V249.075H149.496C148.926 249.075 148.491 248.965 148.191 248.745C147.891 248.525 147.681 248.245 147.561 247.905C147.451 247.565 147.396 247.215 147.396 246.855ZM157.346 249.075C156.836 249.075 156.426 248.97 156.116 248.76C155.816 248.55 155.596 248.29 155.456 247.98C155.026 248.38 154.611 248.675 154.211 248.865C153.811 249.055 153.381 249.15 152.921 249.15C152.251 249.15 151.756 248.935 151.436 248.505C151.126 248.075 150.971 247.53 150.971 246.87C150.971 246.43 151.051 246.045 151.211 245.715C151.381 245.375 151.656 245.11 152.036 244.92C152.416 244.73 152.936 244.635 153.596 244.635C153.856 244.635 154.126 244.655 154.406 244.695C154.686 244.725 154.966 244.765 155.246 244.815V243.93C155.246 243.51 155.131 243.225 154.901 243.075C154.671 242.915 154.361 242.835 153.971 242.835C153.671 242.835 153.341 242.875 152.981 242.955C152.631 243.035 152.251 243.16 151.841 243.33L151.346 241.86C152.356 241.45 153.271 241.245 154.091 241.245C154.831 241.245 155.401 241.37 155.801 241.62C156.211 241.87 156.496 242.2 156.656 242.61C156.816 243.02 156.896 243.46 156.896 243.93V246.855C156.896 247.005 156.936 247.15 157.016 247.29C157.106 247.42 157.276 247.485 157.526 247.485H157.691V249.075H157.346ZM152.636 246.84C152.636 247.11 152.696 247.325 152.816 247.485C152.936 247.635 153.111 247.71 153.341 247.71C153.571 247.71 153.831 247.65 154.121 247.53C154.411 247.41 154.786 247.13 155.246 246.69V246.045C154.726 245.955 154.216 245.91 153.716 245.91C153.326 245.91 153.046 245.99 152.876 246.15C152.716 246.31 152.636 246.54 152.636 246.84ZM160.509 244.755V245.64C160.509 246.28 160.624 246.76 160.854 247.08C161.084 247.4 161.454 247.56 161.964 247.56C162.214 247.56 162.494 247.53 162.804 247.47C163.124 247.4 163.469 247.295 163.839 247.155L164.334 248.61C163.884 248.79 163.459 248.925 163.059 249.015C162.659 249.105 162.264 249.15 161.874 249.15C160.874 249.15 160.109 248.83 159.579 248.19C159.049 247.55 158.784 246.7 158.784 245.64V244.755C158.784 243.685 159.049 242.835 159.579 242.205C160.109 241.565 160.874 241.245 161.874 241.245C162.254 241.245 162.639 241.29 163.029 241.38C163.419 241.47 163.829 241.6 164.259 241.77L163.764 243.255C163.044 242.975 162.444 242.835 161.964 242.835C161.454 242.835 161.084 242.995 160.854 243.315C160.624 243.625 160.509 244.105 160.509 244.755ZM171.687 248.565C171.167 248.775 170.677 248.925 170.217 249.015C169.757 249.105 169.322 249.15 168.912 249.15C167.782 249.15 166.927 248.83 166.347 248.19C165.767 247.55 165.477 246.7 165.477 245.64V244.74C165.477 244.03 165.607 243.415 165.867 242.895C166.127 242.375 166.497 241.97 166.977 241.68C167.457 241.39 168.022 241.245 168.672 241.245C169.202 241.245 169.697 241.355 170.157 241.575C170.627 241.785 171.007 242.12 171.297 242.58C171.597 243.03 171.747 243.61 171.747 244.32C171.747 244.53 171.732 244.755 171.702 244.995C171.672 245.225 171.622 245.47 171.552 245.73H167.142C167.162 246.35 167.317 246.815 167.607 247.125C167.897 247.435 168.362 247.59 169.002 247.59C169.342 247.59 169.692 247.55 170.052 247.47C170.422 247.39 170.802 247.27 171.192 247.11L171.687 248.565ZM168.672 242.7C168.212 242.7 167.852 242.85 167.592 243.15C167.342 243.44 167.197 243.86 167.157 244.41H170.037C170.047 244.36 170.052 244.315 170.052 244.275C170.052 244.225 170.052 244.18 170.052 244.14C170.052 243.66 169.917 243.3 169.647 243.06C169.377 242.82 169.052 242.7 168.672 242.7ZM182.962 244.74V245.64C182.962 246.7 182.672 247.55 182.092 248.19C181.512 248.83 180.692 249.15 179.632 249.15C178.572 249.15 177.752 248.83 177.172 248.19C176.592 247.55 176.302 246.7 176.302 245.64V244.74C176.302 243.68 176.587 242.835 177.157 242.205C177.737 241.565 178.562 241.245 179.632 241.245C180.702 241.245 181.522 241.565 182.092 242.205C182.672 242.835 182.962 243.68 182.962 244.74ZM181.192 244.74C181.192 244.13 181.057 243.655 180.787 243.315C180.517 242.965 180.132 242.79 179.632 242.79C179.132 242.79 178.747 242.965 178.477 243.315C178.207 243.655 178.072 244.13 178.072 244.74V245.64C178.072 246.25 178.207 246.73 178.477 247.08C178.747 247.43 179.132 247.605 179.632 247.605C180.132 247.605 180.517 247.43 180.787 247.08C181.057 246.73 181.192 246.25 181.192 245.64V244.74ZM189.292 242.895H186.922V249H185.197V242.895H183.967V241.395H185.197V240.6C185.197 239.77 185.407 239.09 185.827 238.56C186.247 238.02 186.922 237.75 187.852 237.75C188.192 237.75 188.542 237.785 188.902 237.855C189.262 237.925 189.587 238.015 189.877 238.125L189.457 239.61C188.977 239.45 188.547 239.37 188.167 239.37C187.767 239.37 187.457 239.46 187.237 239.64C187.027 239.81 186.922 240.13 186.922 240.6V241.395H189.292V242.895ZM195.999 247.485C197.159 247.485 197.739 247.055 197.739 246.195C197.739 245.845 197.649 245.57 197.469 245.37C197.299 245.17 196.979 244.995 196.509 244.845L195.279 244.44C193.809 243.96 193.074 242.995 193.074 241.545C193.074 240.705 193.334 240.015 193.854 239.475C194.384 238.925 195.209 238.65 196.329 238.65C196.799 238.65 197.264 238.705 197.724 238.815C198.184 238.915 198.674 239.08 199.194 239.31L198.639 240.855C198.159 240.665 197.749 240.53 197.409 240.45C197.079 240.36 196.739 240.315 196.389 240.315C195.929 240.315 195.564 240.4 195.294 240.57C195.034 240.73 194.904 241.025 194.904 241.455C194.904 241.775 194.994 242.04 195.174 242.25C195.364 242.45 195.674 242.62 196.104 242.76L197.334 243.165C198.074 243.415 198.629 243.78 198.999 244.26C199.379 244.73 199.569 245.355 199.569 246.135C199.569 247.035 199.284 247.765 198.714 248.325C198.144 248.875 197.249 249.15 196.029 249.15C195.549 249.15 195.049 249.095 194.529 248.985C194.019 248.865 193.459 248.665 192.849 248.385L193.404 246.84C193.964 247.08 194.439 247.25 194.829 247.35C195.229 247.44 195.619 247.485 195.999 247.485ZM205.848 249V247.995C205.388 248.395 204.958 248.69 204.558 248.88C204.158 249.06 203.753 249.15 203.343 249.15C202.663 249.15 202.138 248.92 201.768 248.46C201.398 247.99 201.213 247.335 201.213 246.495V241.395H202.938V246.285C202.938 247.125 203.248 247.545 203.868 247.545C204.118 247.545 204.388 247.485 204.678 247.365C204.978 247.245 205.338 247.015 205.758 246.675V241.395H207.483V249H205.848ZM213.113 249.15C212.863 249.15 212.608 249.125 212.348 249.075C212.098 249.025 211.843 248.955 211.583 248.865V252.195H209.858V241.395H211.493V242.43C211.963 241.96 212.363 241.645 212.693 241.485C213.023 241.325 213.368 241.245 213.728 241.245C214.558 241.245 215.198 241.555 215.648 242.175C216.098 242.795 216.323 243.665 216.323 244.785V245.595C216.323 246.685 216.048 247.55 215.498 248.19C214.948 248.83 214.153 249.15 213.113 249.15ZM213.263 242.85C213.033 242.85 212.788 242.92 212.528 243.06C212.278 243.19 211.963 243.445 211.583 243.825V247.305C212.073 247.505 212.523 247.605 212.933 247.605C213.513 247.605 213.928 247.425 214.178 247.065C214.428 246.705 214.553 246.215 214.553 245.595V244.785C214.553 244.115 214.438 243.625 214.208 243.315C213.988 243.005 213.673 242.85 213.263 242.85ZM221.579 249.15C221.329 249.15 221.074 249.125 220.814 249.075C220.564 249.025 220.309 248.955 220.049 248.865V252.195H218.324V241.395H219.959V242.43C220.429 241.96 220.829 241.645 221.159 241.485C221.489 241.325 221.834 241.245 222.194 241.245C223.024 241.245 223.664 241.555 224.114 242.175C224.564 242.795 224.789 243.665 224.789 244.785V245.595C224.789 246.685 224.514 247.55 223.964 248.19C223.414 248.83 222.619 249.15 221.579 249.15ZM221.729 242.85C221.499 242.85 221.254 242.92 220.994 243.06C220.744 243.19 220.429 243.445 220.049 243.825V247.305C220.539 247.505 220.989 247.605 221.399 247.605C221.979 247.605 222.394 247.425 222.644 247.065C222.894 246.705 223.019 246.215 223.019 245.595V244.785C223.019 244.115 222.904 243.625 222.674 243.315C222.454 243.005 222.139 242.85 221.729 242.85ZM226.746 246.855V237.9H228.471V246.855C228.471 247.005 228.506 247.15 228.576 247.29C228.656 247.42 228.806 247.485 229.026 247.485H229.266V249.075H228.846C228.276 249.075 227.841 248.965 227.541 248.745C227.241 248.525 227.031 248.245 226.911 247.905C226.801 247.565 226.746 247.215 226.746 246.855ZM234.012 249.75C233.682 250.67 233.262 251.33 232.752 251.73C232.242 252.14 231.542 252.345 230.652 252.345V250.62C231.182 250.6 231.597 250.48 231.897 250.26C232.207 250.05 232.437 249.755 232.587 249.375L232.722 249.03L230.007 241.395H231.717L233.022 245.19L233.532 246.795L234.027 245.19L235.272 241.395H236.982L234.012 249.75ZM242.73 243.18H240.915V241.395H242.73V243.18ZM242.73 249H240.915V247.215H242.73V249Z" fill="#FF1B23"/>
<path d="M137.837 294.525V292.8H145.337V294.525H142.487V303H140.687V294.525H137.837ZM151.882 303.075C151.372 303.075 150.962 302.97 150.652 302.76C150.352 302.55 150.132 302.29 149.992 301.98C149.562 302.38 149.147 302.675 148.747 302.865C148.347 303.055 147.917 303.15 147.457 303.15C146.787 303.15 146.292 302.935 145.972 302.505C145.662 302.075 145.507 301.53 145.507 300.87C145.507 300.43 145.587 300.045 145.747 299.715C145.917 299.375 146.192 299.11 146.572 298.92C146.952 298.73 147.472 298.635 148.132 298.635C148.392 298.635 148.662 298.655 148.942 298.695C149.222 298.725 149.502 298.765 149.782 298.815V297.93C149.782 297.51 149.667 297.225 149.437 297.075C149.207 296.915 148.897 296.835 148.507 296.835C148.207 296.835 147.877 296.875 147.517 296.955C147.167 297.035 146.787 297.16 146.377 297.33L145.882 295.86C146.892 295.45 147.807 295.245 148.627 295.245C149.367 295.245 149.937 295.37 150.337 295.62C150.747 295.87 151.032 296.2 151.192 296.61C151.352 297.02 151.432 297.46 151.432 297.93V300.855C151.432 301.005 151.472 301.15 151.552 301.29C151.642 301.42 151.812 301.485 152.062 301.485H152.227V303.075H151.882ZM147.172 300.84C147.172 301.11 147.232 301.325 147.352 301.485C147.472 301.635 147.647 301.71 147.877 301.71C148.107 301.71 148.367 301.65 148.657 301.53C148.947 301.41 149.322 301.13 149.782 300.69V300.045C149.262 299.955 148.752 299.91 148.252 299.91C147.862 299.91 147.582 299.99 147.412 300.15C147.252 300.31 147.172 300.54 147.172 300.84ZM157.745 303L156.17 300.45L154.625 303H152.825L155.285 299.1L152.99 295.395H154.85L156.26 297.66L157.625 295.395H159.425L157.13 299.025L159.605 303H157.745ZM164.306 303V292.8H167.666C168.736 292.8 169.536 293.07 170.066 293.61C170.606 294.15 170.876 294.87 170.876 295.77V296.565C170.876 297.465 170.606 298.19 170.066 298.74C169.536 299.28 168.736 299.55 167.666 299.55H166.106V303H164.306ZM167.666 294.525H166.106V297.825H167.666C168.106 297.825 168.441 297.715 168.671 297.495C168.911 297.275 169.031 296.965 169.031 296.565V295.77C169.031 295.38 168.911 295.075 168.671 294.855C168.441 294.635 168.106 294.525 167.666 294.525ZM176.838 296.97C176.368 296.97 175.918 297.045 175.488 297.195C175.068 297.335 174.663 297.565 174.273 297.885V303H172.548V295.395H174.183V296.565C174.693 296.085 175.148 295.745 175.548 295.545C175.948 295.345 176.378 295.245 176.838 295.245V296.97ZM184.124 302.565C183.604 302.775 183.114 302.925 182.654 303.015C182.194 303.105 181.759 303.15 181.349 303.15C180.219 303.15 179.364 302.83 178.784 302.19C178.204 301.55 177.914 300.7 177.914 299.64V298.74C177.914 298.03 178.044 297.415 178.304 296.895C178.564 296.375 178.934 295.97 179.414 295.68C179.894 295.39 180.459 295.245 181.109 295.245C181.639 295.245 182.134 295.355 182.594 295.575C183.064 295.785 183.444 296.12 183.734 296.58C184.034 297.03 184.184 297.61 184.184 298.32C184.184 298.53 184.169 298.755 184.139 298.995C184.109 299.225 184.059 299.47 183.989 299.73H179.579C179.599 300.35 179.754 300.815 180.044 301.125C180.334 301.435 180.799 301.59 181.439 301.59C181.779 301.59 182.129 301.55 182.489 301.47C182.859 301.39 183.239 301.27 183.629 301.11L184.124 302.565ZM181.109 296.7C180.649 296.7 180.289 296.85 180.029 297.15C179.779 297.44 179.634 297.86 179.594 298.41H182.474C182.484 298.36 182.489 298.315 182.489 298.275C182.489 298.225 182.489 298.18 182.489 298.14C182.489 297.66 182.354 297.3 182.084 297.06C181.814 296.82 181.489 296.7 181.109 296.7ZM190.566 296.895H188.196V303H186.471V296.895H185.241V295.395H186.471V294.6C186.471 293.77 186.681 293.09 187.101 292.56C187.521 292.02 188.196 291.75 189.126 291.75C189.466 291.75 189.816 291.785 190.176 291.855C190.536 291.925 190.861 292.015 191.151 292.125L190.731 293.61C190.251 293.45 189.821 293.37 189.441 293.37C189.041 293.37 188.731 293.46 188.511 293.64C188.301 293.81 188.196 294.13 188.196 294.6V295.395H190.566V296.895ZM197.6 302.565C197.08 302.775 196.59 302.925 196.13 303.015C195.67 303.105 195.235 303.15 194.825 303.15C193.695 303.15 192.84 302.83 192.26 302.19C191.68 301.55 191.39 300.7 191.39 299.64V298.74C191.39 298.03 191.52 297.415 191.78 296.895C192.04 296.375 192.41 295.97 192.89 295.68C193.37 295.39 193.935 295.245 194.585 295.245C195.115 295.245 195.61 295.355 196.07 295.575C196.54 295.785 196.92 296.12 197.21 296.58C197.51 297.03 197.66 297.61 197.66 298.32C197.66 298.53 197.645 298.755 197.615 298.995C197.585 299.225 197.535 299.47 197.465 299.73H193.055C193.075 300.35 193.23 300.815 193.52 301.125C193.81 301.435 194.275 301.59 194.915 301.59C195.255 301.59 195.605 301.55 195.965 301.47C196.335 301.39 196.715 301.27 197.105 301.11L197.6 302.565ZM194.585 296.7C194.125 296.7 193.765 296.85 193.505 297.15C193.255 297.44 193.11 297.86 193.07 298.41H195.95C195.96 298.36 195.965 298.315 195.965 298.275C195.965 298.225 195.965 298.18 195.965 298.14C195.965 297.66 195.83 297.3 195.56 297.06C195.29 296.82 194.965 296.7 194.585 296.7ZM203.938 296.97C203.468 296.97 203.018 297.045 202.588 297.195C202.168 297.335 201.763 297.565 201.373 297.885V303H199.648V295.395H201.283V296.565C201.793 296.085 202.248 295.745 202.648 295.545C203.048 295.345 203.478 295.245 203.938 295.245V296.97ZM211.223 302.565C210.703 302.775 210.213 302.925 209.753 303.015C209.293 303.105 208.858 303.15 208.448 303.15C207.318 303.15 206.463 302.83 205.883 302.19C205.303 301.55 205.013 300.7 205.013 299.64V298.74C205.013 298.03 205.143 297.415 205.403 296.895C205.663 296.375 206.033 295.97 206.513 295.68C206.993 295.39 207.558 295.245 208.208 295.245C208.738 295.245 209.233 295.355 209.693 295.575C210.163 295.785 210.543 296.12 210.833 296.58C211.133 297.03 211.283 297.61 211.283 298.32C211.283 298.53 211.268 298.755 211.238 298.995C211.208 299.225 211.158 299.47 211.088 299.73H206.678C206.698 300.35 206.853 300.815 207.143 301.125C207.433 301.435 207.898 301.59 208.538 301.59C208.878 301.59 209.228 301.55 209.588 301.47C209.958 301.39 210.338 301.27 210.728 301.11L211.223 302.565ZM208.208 296.7C207.748 296.7 207.388 296.85 207.128 297.15C206.878 297.44 206.733 297.86 206.693 298.41H209.573C209.583 298.36 209.588 298.315 209.588 298.275C209.588 298.225 209.588 298.18 209.588 298.14C209.588 297.66 209.453 297.3 209.183 297.06C208.913 296.82 208.588 296.7 208.208 296.7ZM216.991 296.85C216.741 296.85 216.456 296.91 216.136 297.03C215.816 297.15 215.436 297.385 214.996 297.735V303H213.271V295.395H214.906V296.415C215.376 296.005 215.821 295.71 216.241 295.53C216.661 295.34 217.086 295.245 217.516 295.245C218.246 295.245 218.801 295.48 219.181 295.95C219.561 296.41 219.751 297.06 219.751 297.9V303H218.026V298.11C218.026 297.27 217.681 296.85 216.991 296.85ZM223.35 298.755V299.64C223.35 300.28 223.465 300.76 223.695 301.08C223.925 301.4 224.295 301.56 224.805 301.56C225.055 301.56 225.335 301.53 225.645 301.47C225.965 301.4 226.31 301.295 226.68 301.155L227.175 302.61C226.725 302.79 226.3 302.925 225.9 303.015C225.5 303.105 225.105 303.15 224.715 303.15C223.715 303.15 222.95 302.83 222.42 302.19C221.89 301.55 221.625 300.7 221.625 299.64V298.755C221.625 297.685 221.89 296.835 222.42 296.205C222.95 295.565 223.715 295.245 224.715 295.245C225.095 295.245 225.48 295.29 225.87 295.38C226.26 295.47 226.67 295.6 227.1 295.77L226.605 297.255C225.885 296.975 225.285 296.835 224.805 296.835C224.295 296.835 223.925 296.995 223.695 297.315C223.465 297.625 223.35 298.105 223.35 298.755ZM234.529 302.565C234.009 302.775 233.519 302.925 233.059 303.015C232.599 303.105 232.164 303.15 231.754 303.15C230.624 303.15 229.769 302.83 229.189 302.19C228.609 301.55 228.319 300.7 228.319 299.64V298.74C228.319 298.03 228.449 297.415 228.709 296.895C228.969 296.375 229.339 295.97 229.819 295.68C230.299 295.39 230.864 295.245 231.514 295.245C232.044 295.245 232.539 295.355 232.999 295.575C233.469 295.785 233.849 296.12 234.139 296.58C234.439 297.03 234.589 297.61 234.589 298.32C234.589 298.53 234.574 298.755 234.544 298.995C234.514 299.225 234.464 299.47 234.394 299.73H229.984C230.004 300.35 230.159 300.815 230.449 301.125C230.739 301.435 231.204 301.59 231.844 301.59C232.184 301.59 232.534 301.55 232.894 301.47C233.264 301.39 233.644 301.27 234.034 301.11L234.529 302.565ZM231.514 296.7C231.054 296.7 230.694 296.85 230.434 297.15C230.184 297.44 230.039 297.86 229.999 298.41H232.879C232.889 298.36 232.894 298.315 232.894 298.275C232.894 298.225 232.894 298.18 232.894 298.14C232.894 297.66 232.759 297.3 232.489 297.06C232.219 296.82 231.894 296.7 231.514 296.7ZM240.884 297.18H239.069V295.395H240.884V297.18ZM240.884 303H239.069V301.215H240.884V303Z" fill="#FF1B23"/>
<path d="M140.432 352.965C140.432 353.695 140.592 354.295 140.912 354.765C141.232 355.225 141.757 355.455 142.487 355.455C142.787 355.455 143.097 355.415 143.417 355.335C143.747 355.255 144.152 355.12 144.632 354.93L145.187 356.49C144.647 356.73 144.147 356.9 143.687 357C143.237 357.1 142.802 357.15 142.382 357.15C141.542 357.15 140.837 356.97 140.267 356.61C139.707 356.25 139.287 355.755 139.007 355.125C138.727 354.495 138.587 353.775 138.587 352.965V350.82C138.587 350.01 138.727 349.29 139.007 348.66C139.287 348.03 139.707 347.54 140.267 347.19C140.837 346.83 141.542 346.65 142.382 346.65C142.792 346.65 143.217 346.7 143.657 346.8C144.097 346.89 144.577 347.05 145.097 347.28L144.542 348.87C144.082 348.68 143.697 348.545 143.387 348.465C143.077 348.385 142.777 348.345 142.487 348.345C141.757 348.345 141.232 348.575 140.912 349.035C140.592 349.495 140.432 350.09 140.432 350.82V352.965ZM151.077 357V355.995C150.617 356.395 150.187 356.69 149.787 356.88C149.387 357.06 148.982 357.15 148.572 357.15C147.892 357.15 147.367 356.92 146.997 356.46C146.627 355.99 146.442 355.335 146.442 354.495V349.395H148.167V354.285C148.167 355.125 148.477 355.545 149.097 355.545C149.347 355.545 149.617 355.485 149.907 355.365C150.207 355.245 150.567 355.015 150.987 354.675V349.395H152.712V357H151.077ZM159.377 350.97C158.907 350.97 158.457 351.045 158.027 351.195C157.607 351.335 157.202 351.565 156.812 351.885V357H155.087V349.395H156.722V350.565C157.232 350.085 157.687 349.745 158.087 349.545C158.487 349.345 158.917 349.245 159.377 349.245V350.97ZM165.178 350.97C164.708 350.97 164.258 351.045 163.828 351.195C163.408 351.335 163.003 351.565 162.613 351.885V357H160.888V349.395H162.523V350.565C163.033 350.085 163.488 349.745 163.888 349.545C164.288 349.345 164.718 349.245 165.178 349.245V350.97ZM172.464 356.565C171.944 356.775 171.454 356.925 170.994 357.015C170.534 357.105 170.099 357.15 169.689 357.15C168.559 357.15 167.704 356.83 167.124 356.19C166.544 355.55 166.254 354.7 166.254 353.64V352.74C166.254 352.03 166.384 351.415 166.644 350.895C166.904 350.375 167.274 349.97 167.754 349.68C168.234 349.39 168.799 349.245 169.449 349.245C169.979 349.245 170.474 349.355 170.934 349.575C171.404 349.785 171.784 350.12 172.074 350.58C172.374 351.03 172.524 351.61 172.524 352.32C172.524 352.53 172.509 352.755 172.479 352.995C172.449 353.225 172.399 353.47 172.329 353.73H167.919C167.939 354.35 168.094 354.815 168.384 355.125C168.674 355.435 169.139 355.59 169.779 355.59C170.119 355.59 170.469 355.55 170.829 355.47C171.199 355.39 171.579 355.27 171.969 355.11L172.464 356.565ZM169.449 350.7C168.989 350.7 168.629 350.85 168.369 351.15C168.119 351.44 167.974 351.86 167.934 352.41H170.814C170.824 352.36 170.829 352.315 170.829 352.275C170.829 352.225 170.829 352.18 170.829 352.14C170.829 351.66 170.694 351.3 170.424 351.06C170.154 350.82 169.829 350.7 169.449 350.7ZM178.231 350.85C177.981 350.85 177.696 350.91 177.376 351.03C177.056 351.15 176.676 351.385 176.236 351.735V357H174.511V349.395H176.146V350.415C176.616 350.005 177.061 349.71 177.481 349.53C177.901 349.34 178.326 349.245 178.756 349.245C179.486 349.245 180.041 349.48 180.421 349.95C180.801 350.41 180.991 351.06 180.991 351.9V357H179.266V352.11C179.266 351.27 178.921 350.85 178.231 350.85ZM184.591 352.755V353.64C184.591 354.28 184.706 354.76 184.936 355.08C185.166 355.4 185.536 355.56 186.046 355.56C186.296 355.56 186.576 355.53 186.886 355.47C187.206 355.4 187.551 355.295 187.921 355.155L188.416 356.61C187.966 356.79 187.541 356.925 187.141 357.015C186.741 357.105 186.346 357.15 185.956 357.15C184.956 357.15 184.191 356.83 183.661 356.19C183.131 355.55 182.866 354.7 182.866 353.64V352.755C182.866 351.685 183.131 350.835 183.661 350.205C184.191 349.565 184.956 349.245 185.956 349.245C186.336 349.245 186.721 349.29 187.111 349.38C187.501 349.47 187.911 349.6 188.341 349.77L187.846 351.255C187.126 350.975 186.526 350.835 186.046 350.835C185.536 350.835 185.166 350.995 184.936 351.315C184.706 351.625 184.591 352.105 184.591 352.755ZM193.069 357.75C192.739 358.67 192.319 359.33 191.809 359.73C191.299 360.14 190.599 360.345 189.709 360.345V358.62C190.239 358.6 190.654 358.48 190.954 358.26C191.264 358.05 191.494 357.755 191.644 357.375L191.779 357.03L189.064 349.395H190.774L192.079 353.19L192.589 354.795L193.084 353.19L194.329 349.395H196.039L193.069 357.75ZM201.788 351.18H199.973V349.395H201.788V351.18ZM201.788 357H199.973V355.215H201.788V357Z" fill="#FF1B23"/>
<path d="M139.052 408V397.8H142.412C143.482 397.8 144.282 398.07 144.812 398.61C145.352 399.15 145.622 399.87 145.622 400.77V401.565C145.622 402.465 145.352 403.19 144.812 403.74C144.282 404.28 143.482 404.55 142.412 404.55H140.852V408H139.052ZM142.412 399.525H140.852V402.825H142.412C142.852 402.825 143.187 402.715 143.417 402.495C143.657 402.275 143.777 401.965 143.777 401.565V400.77C143.777 400.38 143.657 400.075 143.417 399.855C143.187 399.635 142.852 399.525 142.412 399.525ZM153.127 408.075C152.617 408.075 152.207 407.97 151.897 407.76C151.597 407.55 151.377 407.29 151.237 406.98C150.807 407.38 150.392 407.675 149.992 407.865C149.592 408.055 149.162 408.15 148.702 408.15C148.032 408.15 147.537 407.935 147.217 407.505C146.907 407.075 146.752 406.53 146.752 405.87C146.752 405.43 146.832 405.045 146.992 404.715C147.162 404.375 147.437 404.11 147.817 403.92C148.197 403.73 148.717 403.635 149.377 403.635C149.637 403.635 149.907 403.655 150.187 403.695C150.467 403.725 150.747 403.765 151.027 403.815V402.93C151.027 402.51 150.912 402.225 150.682 402.075C150.452 401.915 150.142 401.835 149.752 401.835C149.452 401.835 149.122 401.875 148.762 401.955C148.412 402.035 148.032 402.16 147.622 402.33L147.127 400.86C148.137 400.45 149.052 400.245 149.872 400.245C150.612 400.245 151.182 400.37 151.582 400.62C151.992 400.87 152.277 401.2 152.437 401.61C152.597 402.02 152.677 402.46 152.677 402.93V405.855C152.677 406.005 152.717 406.15 152.797 406.29C152.887 406.42 153.057 406.485 153.307 406.485H153.472V408.075H153.127ZM148.417 405.84C148.417 406.11 148.477 406.325 148.597 406.485C148.717 406.635 148.892 406.71 149.122 406.71C149.352 406.71 149.612 406.65 149.902 406.53C150.192 406.41 150.567 406.13 151.027 405.69V405.045C150.507 404.955 149.997 404.91 149.497 404.91C149.107 404.91 148.827 404.99 148.657 405.15C148.497 405.31 148.417 405.54 148.417 405.84ZM157.825 408.75C157.495 409.67 157.075 410.33 156.565 410.73C156.055 411.14 155.355 411.345 154.465 411.345V409.62C154.995 409.6 155.41 409.48 155.71 409.26C156.02 409.05 156.25 408.755 156.4 408.375L156.535 408.03L153.82 400.395H155.53L156.835 404.19L157.345 405.795L157.84 404.19L159.085 400.395H160.795L157.825 408.75ZM163.961 402.735V408H162.236V400.395H163.871V401.4C164.341 400.99 164.776 400.695 165.176 400.515C165.576 400.335 165.986 400.245 166.406 400.245C167.336 400.245 167.971 400.655 168.311 401.475C168.811 401.035 169.276 400.72 169.706 400.53C170.136 400.34 170.571 400.245 171.011 400.245C171.711 400.245 172.246 400.48 172.616 400.95C172.986 401.41 173.171 402.06 173.171 402.9V408H171.446V403.11C171.446 402.27 171.126 401.85 170.486 401.85C170.236 401.85 169.961 401.91 169.661 402.03C169.361 402.15 168.996 402.385 168.566 402.735V408H166.841V403.11C166.841 402.27 166.521 401.85 165.881 401.85C165.631 401.85 165.356 401.91 165.056 402.03C164.756 402.15 164.391 402.385 163.961 402.735ZM181.223 407.565C180.703 407.775 180.213 407.925 179.753 408.015C179.293 408.105 178.858 408.15 178.448 408.15C177.318 408.15 176.463 407.83 175.883 407.19C175.303 406.55 175.013 405.7 175.013 404.64V403.74C175.013 403.03 175.143 402.415 175.403 401.895C175.663 401.375 176.033 400.97 176.513 400.68C176.993 400.39 177.558 400.245 178.208 400.245C178.738 400.245 179.233 400.355 179.693 400.575C180.163 400.785 180.543 401.12 180.833 401.58C181.133 402.03 181.283 402.61 181.283 403.32C181.283 403.53 181.268 403.755 181.238 403.995C181.208 404.225 181.158 404.47 181.088 404.73H176.678C176.698 405.35 176.853 405.815 177.143 406.125C177.433 406.435 177.898 406.59 178.538 406.59C178.878 406.59 179.228 406.55 179.588 406.47C179.958 406.39 180.338 406.27 180.728 406.11L181.223 407.565ZM178.208 401.7C177.748 401.7 177.388 401.85 177.128 402.15C176.878 402.44 176.733 402.86 176.693 403.41H179.573C179.583 403.36 179.588 403.315 179.588 403.275C179.588 403.225 179.588 403.18 179.588 403.14C179.588 402.66 179.453 402.3 179.183 402.06C178.913 401.82 178.588 401.7 178.208 401.7ZM186.991 401.85C186.741 401.85 186.456 401.91 186.136 402.03C185.816 402.15 185.436 402.385 184.996 402.735V408H183.271V400.395H184.906V401.415C185.376 401.005 185.821 400.71 186.241 400.53C186.661 400.34 187.086 400.245 187.516 400.245C188.246 400.245 188.801 400.48 189.181 400.95C189.561 401.41 189.751 402.06 189.751 402.9V408H188.026V403.11C188.026 402.27 187.681 401.85 186.991 401.85ZM196.605 407.745C196.345 407.865 196.045 407.96 195.705 408.03C195.365 408.11 195.02 408.15 194.67 408.15C194.09 408.15 193.625 408.03 193.275 407.79C192.925 407.55 192.67 407.215 192.51 406.785C192.36 406.355 192.285 405.865 192.285 405.315V401.895H191.055V400.395H192.285V398.415H194.01V400.395H196.38V401.895H194.01V405.315C194.01 405.775 194.095 406.095 194.265 406.275C194.445 406.445 194.7 406.53 195.03 406.53C195.19 406.53 195.36 406.515 195.54 406.485C195.73 406.445 195.94 406.38 196.17 406.29L196.605 407.745ZM200.005 399.525V397.8H207.505V399.525H204.655V408H202.855V399.525H200.005ZM213.772 407.565C213.252 407.775 212.762 407.925 212.302 408.015C211.842 408.105 211.407 408.15 210.997 408.15C209.867 408.15 209.012 407.83 208.432 407.19C207.852 406.55 207.562 405.7 207.562 404.64V403.74C207.562 403.03 207.692 402.415 207.952 401.895C208.212 401.375 208.582 400.97 209.062 400.68C209.542 400.39 210.107 400.245 210.757 400.245C211.287 400.245 211.782 400.355 212.242 400.575C212.712 400.785 213.092 401.12 213.382 401.58C213.682 402.03 213.832 402.61 213.832 403.32C213.832 403.53 213.817 403.755 213.787 403.995C213.757 404.225 213.707 404.47 213.637 404.73H209.227C209.247 405.35 209.402 405.815 209.692 406.125C209.982 406.435 210.447 406.59 211.087 406.59C211.427 406.59 211.777 406.55 212.137 406.47C212.507 406.39 212.887 406.27 213.277 406.11L213.772 407.565ZM210.757 401.7C210.297 401.7 209.937 401.85 209.677 402.15C209.427 402.44 209.282 402.86 209.242 403.41H212.122C212.132 403.36 212.137 403.315 212.137 403.275C212.137 403.225 212.137 403.18 212.137 403.14C212.137 402.66 212.002 402.3 211.732 402.06C211.462 401.82 211.137 401.7 210.757 401.7ZM220.11 401.97C219.64 401.97 219.19 402.045 218.76 402.195C218.34 402.335 217.935 402.565 217.545 402.885V408H215.82V400.395H217.455V401.565C217.965 401.085 218.42 400.745 218.82 400.545C219.22 400.345 219.65 400.245 220.11 400.245V401.97ZM223.345 402.735V408H221.62V400.395H223.255V401.4C223.725 400.99 224.16 400.695 224.56 400.515C224.96 400.335 225.37 400.245 225.79 400.245C226.72 400.245 227.355 400.655 227.695 401.475C228.195 401.035 228.66 400.72 229.09 400.53C229.52 400.34 229.955 400.245 230.395 400.245C231.095 400.245 231.63 400.48 232 400.95C232.37 401.41 232.555 402.06 232.555 402.9V408H230.83V403.11C230.83 402.27 230.51 401.85 229.87 401.85C229.62 401.85 229.345 401.91 229.045 402.03C228.745 402.15 228.38 402.385 227.95 402.735V408H226.225V403.11C226.225 402.27 225.905 401.85 225.265 401.85C225.015 401.85 224.74 401.91 224.44 402.03C224.14 402.15 223.775 402.385 223.345 402.735ZM236.963 406.65C237.333 406.65 237.638 406.59 237.878 406.47C238.118 406.34 238.238 406.15 238.238 405.9C238.238 405.68 238.158 405.51 237.998 405.39C237.848 405.26 237.573 405.145 237.173 405.045L236.318 404.82C235.658 404.65 235.168 404.365 234.848 403.965C234.538 403.565 234.383 403.09 234.383 402.54C234.383 401.89 234.608 401.345 235.058 400.905C235.508 400.465 236.203 400.245 237.143 400.245C237.523 400.245 237.923 400.29 238.343 400.38C238.763 400.47 239.203 400.615 239.663 400.815L239.168 402.285C238.748 402.085 238.368 401.945 238.028 401.865C237.688 401.785 237.388 401.745 237.128 401.745C236.418 401.745 236.063 401.985 236.063 402.465C236.063 402.655 236.123 402.805 236.243 402.915C236.373 403.025 236.608 403.125 236.948 403.215L237.803 403.44C238.533 403.63 239.063 403.92 239.393 404.31C239.733 404.7 239.903 405.19 239.903 405.78C239.903 406.48 239.663 407.05 239.183 407.49C238.713 407.93 237.968 408.15 236.948 408.15C236.078 408.15 235.163 407.95 234.203 407.55L234.668 406.125C235.138 406.315 235.563 406.45 235.943 406.53C236.323 406.61 236.663 406.65 236.963 406.65ZM242.979 402.18H241.164V400.395H242.979V402.18ZM242.979 408H241.164V406.215H242.979V408Z" fill="#FF1B23"/>
<rect x="341.967" y="112.5" width="244.956" height="27" rx="4.5" fill="white" stroke="#005EFF"/>
<path d="M341.967 180C341.967 177.515 343.982 175.5 346.467 175.5H582.423C584.909 175.5 586.923 177.515 586.923 180V198C586.923 200.485 584.909 202.5 582.423 202.5H346.467C343.982 202.5 341.967 200.485 341.967 198V180Z" fill="white" stroke="#737478"/>
<rect x="341.967" y="283.5" width="244.956" height="27" rx="4.5" fill="#FFFEFE" stroke="#6F7174"/>
<rect x="341.967" y="337.5" width="244.956" height="27" rx="4.5" fill="white" stroke="#7A7C81"/>
<rect x="341.967" y="391.5" width="244.956" height="27" rx="4.5" fill="white" stroke="#7A7C81"/>
<rect x="341.967" y="229.5" width="244.956" height="27" rx="4.5" fill="white" stroke="#75767A"/>
<path d="M358.341 128.25V132H356.541V121.8H359.946C360.976 121.8 361.766 122.065 362.316 122.595C362.876 123.115 363.156 123.815 363.156 124.695V125.34C363.156 125.92 363.031 126.43 362.781 126.87C362.531 127.31 362.171 127.645 361.701 127.875C362.521 129.275 363.221 130.65 363.801 132H361.746C361.246 130.75 360.651 129.5 359.961 128.25H358.341ZM359.946 123.45H358.341V126.6H359.946C360.386 126.6 360.721 126.49 360.951 126.27C361.191 126.04 361.311 125.73 361.311 125.34V124.695C361.311 124.315 361.191 124.015 360.951 123.795C360.721 123.565 360.386 123.45 359.946 123.45ZM371.232 131.565C370.712 131.775 370.222 131.925 369.762 132.015C369.302 132.105 368.867 132.15 368.457 132.15C367.327 132.15 366.472 131.83 365.892 131.19C365.312 130.55 365.022 129.7 365.022 128.64V127.74C365.022 127.03 365.152 126.415 365.412 125.895C365.672 125.375 366.042 124.97 366.522 124.68C367.002 124.39 367.567 124.245 368.217 124.245C368.747 124.245 369.242 124.355 369.702 124.575C370.172 124.785 370.552 125.12 370.842 125.58C371.142 126.03 371.292 126.61 371.292 127.32C371.292 127.53 371.277 127.755 371.247 127.995C371.217 128.225 371.167 128.47 371.097 128.73H366.687C366.707 129.35 366.862 129.815 367.152 130.125C367.442 130.435 367.907 130.59 368.547 130.59C368.887 130.59 369.237 130.55 369.597 130.47C369.967 130.39 370.347 130.27 370.737 130.11L371.232 131.565ZM368.217 125.7C367.757 125.7 367.397 125.85 367.137 126.15C366.887 126.44 366.742 126.86 366.702 127.41H369.582C369.592 127.36 369.597 127.315 369.597 127.275C369.597 127.225 369.597 127.18 369.597 127.14C369.597 126.66 369.462 126.3 369.192 126.06C368.922 125.82 368.597 125.7 368.217 125.7ZM379.594 132.765C379.594 133.575 379.274 134.205 378.634 134.655C378.004 135.115 377.124 135.345 375.994 135.345C375.464 135.345 374.904 135.285 374.314 135.165C373.724 135.045 373.179 134.845 372.679 134.565L373.174 133.2C373.654 133.44 374.129 133.61 374.599 133.71C375.069 133.82 375.529 133.875 375.979 133.875C376.609 133.875 377.089 133.79 377.419 133.62C377.749 133.45 377.914 133.225 377.914 132.945C377.914 132.515 377.659 132.3 377.149 132.3H375.349C374.859 132.3 374.464 132.22 374.164 132.06C373.864 131.9 373.644 131.695 373.504 131.445C373.364 131.185 373.294 130.915 373.294 130.635C373.294 130.345 373.354 130.075 373.474 129.825C373.604 129.565 373.779 129.325 373.999 129.105C373.639 128.885 373.349 128.59 373.129 128.22C372.919 127.85 372.814 127.405 372.814 126.885C372.814 126.295 372.939 125.805 373.189 125.415C373.439 125.025 373.779 124.735 374.209 124.545C374.649 124.345 375.134 124.245 375.664 124.245H375.919C376.119 124.245 376.314 124.26 376.504 124.29C376.694 124.31 376.874 124.345 377.044 124.395H379.759V125.865L378.259 125.625C378.409 125.785 378.524 125.985 378.604 126.225C378.694 126.455 378.739 126.74 378.739 127.08C378.739 127.59 378.609 128.03 378.349 128.4C378.099 128.76 377.759 129.04 377.329 129.24C376.909 129.43 376.439 129.525 375.919 129.525H375.664C375.464 129.525 375.274 129.51 375.094 129.48C374.984 129.6 374.904 129.725 374.854 129.855C374.804 129.975 374.779 130.09 374.779 130.2C374.779 130.55 375.004 130.725 375.454 130.725H377.284C377.974 130.725 378.529 130.905 378.949 131.265C379.379 131.615 379.594 132.115 379.594 132.765ZM375.919 128.115C376.229 128.115 376.499 128.01 376.729 127.8C376.969 127.59 377.089 127.285 377.089 126.885C377.089 126.485 376.969 126.18 376.729 125.97C376.499 125.76 376.229 125.655 375.919 125.655H375.664C375.344 125.655 375.064 125.76 374.824 125.97C374.594 126.18 374.479 126.485 374.479 126.885C374.479 127.285 374.594 127.59 374.824 127.8C375.064 128.01 375.344 128.115 375.664 128.115H375.919ZM383.018 122.955H381.203V121.17H383.018V122.955ZM382.973 132H381.248V124.395H382.973V132ZM387.48 130.65C387.85 130.65 388.155 130.59 388.395 130.47C388.635 130.34 388.755 130.15 388.755 129.9C388.755 129.68 388.675 129.51 388.515 129.39C388.365 129.26 388.09 129.145 387.69 129.045L386.835 128.82C386.175 128.65 385.685 128.365 385.365 127.965C385.055 127.565 384.9 127.09 384.9 126.54C384.9 125.89 385.125 125.345 385.575 124.905C386.025 124.465 386.72 124.245 387.66 124.245C388.04 124.245 388.44 124.29 388.86 124.38C389.28 124.47 389.72 124.615 390.18 124.815L389.685 126.285C389.265 126.085 388.885 125.945 388.545 125.865C388.205 125.785 387.905 125.745 387.645 125.745C386.935 125.745 386.58 125.985 386.58 126.465C386.58 126.655 386.64 126.805 386.76 126.915C386.89 127.025 387.125 127.125 387.465 127.215L388.32 127.44C389.05 127.63 389.58 127.92 389.91 128.31C390.25 128.7 390.42 129.19 390.42 129.78C390.42 130.48 390.18 131.05 389.7 131.49C389.23 131.93 388.485 132.15 387.465 132.15C386.595 132.15 385.68 131.95 384.72 131.55L385.185 130.125C385.655 130.315 386.08 130.45 386.46 130.53C386.84 130.61 387.18 130.65 387.48 130.65ZM396.765 131.745C396.505 131.865 396.205 131.96 395.865 132.03C395.525 132.11 395.18 132.15 394.83 132.15C394.25 132.15 393.785 132.03 393.435 131.79C393.085 131.55 392.83 131.215 392.67 130.785C392.52 130.355 392.445 129.865 392.445 129.315V125.895H391.215V124.395H392.445V122.415H394.17V124.395H396.54V125.895H394.17V129.315C394.17 129.775 394.255 130.095 394.425 130.275C394.605 130.445 394.86 130.53 395.19 130.53C395.35 130.53 395.52 130.515 395.7 130.485C395.89 130.445 396.1 130.38 396.33 130.29L396.765 131.745ZM403.927 131.565C403.407 131.775 402.917 131.925 402.457 132.015C401.997 132.105 401.562 132.15 401.152 132.15C400.022 132.15 399.167 131.83 398.587 131.19C398.007 130.55 397.717 129.7 397.717 128.64V127.74C397.717 127.03 397.847 126.415 398.107 125.895C398.367 125.375 398.737 124.97 399.217 124.68C399.697 124.39 400.262 124.245 400.912 124.245C401.442 124.245 401.937 124.355 402.397 124.575C402.867 124.785 403.247 125.12 403.537 125.58C403.837 126.03 403.987 126.61 403.987 127.32C403.987 127.53 403.972 127.755 403.942 127.995C403.912 128.225 403.862 128.47 403.792 128.73H399.382C399.402 129.35 399.557 129.815 399.847 130.125C400.137 130.435 400.602 130.59 401.242 130.59C401.582 130.59 401.932 130.55 402.292 130.47C402.662 130.39 403.042 130.27 403.432 130.11L403.927 131.565ZM400.912 125.7C400.452 125.7 400.092 125.85 399.832 126.15C399.582 126.44 399.437 126.86 399.397 127.41H402.277C402.287 127.36 402.292 127.315 402.292 127.275C402.292 127.225 402.292 127.18 402.292 127.14C402.292 126.66 402.157 126.3 401.887 126.06C401.617 125.82 401.292 125.7 400.912 125.7ZM410.265 125.97C409.795 125.97 409.345 126.045 408.915 126.195C408.495 126.335 408.09 126.565 407.7 126.885V132H405.975V124.395H407.61V125.565C408.12 125.085 408.575 124.745 408.975 124.545C409.375 124.345 409.805 124.245 410.265 124.245V125.97ZM417.55 131.565C417.03 131.775 416.54 131.925 416.08 132.015C415.62 132.105 415.185 132.15 414.775 132.15C413.645 132.15 412.79 131.83 412.21 131.19C411.63 130.55 411.34 129.7 411.34 128.64V127.74C411.34 127.03 411.47 126.415 411.73 125.895C411.99 125.375 412.36 124.97 412.84 124.68C413.32 124.39 413.885 124.245 414.535 124.245C415.065 124.245 415.56 124.355 416.02 124.575C416.49 124.785 416.87 125.12 417.16 125.58C417.46 126.03 417.61 126.61 417.61 127.32C417.61 127.53 417.595 127.755 417.565 127.995C417.535 128.225 417.485 128.47 417.415 128.73H413.005C413.025 129.35 413.18 129.815 413.47 130.125C413.76 130.435 414.225 130.59 414.865 130.59C415.205 130.59 415.555 130.55 415.915 130.47C416.285 130.39 416.665 130.27 417.055 130.11L417.55 131.565ZM414.535 125.7C414.075 125.7 413.715 125.85 413.455 126.15C413.205 126.44 413.06 126.86 413.02 127.41H415.9C415.91 127.36 415.915 127.315 415.915 127.275C415.915 127.225 415.915 127.18 415.915 127.14C415.915 126.66 415.78 126.3 415.51 126.06C415.24 125.82 414.915 125.7 414.535 125.7ZM424.053 132V130.965C423.593 131.425 423.193 131.74 422.853 131.91C422.523 132.07 422.178 132.15 421.818 132.15C420.998 132.15 420.358 131.84 419.898 131.22C419.448 130.6 419.223 129.73 419.223 128.61V127.8C419.223 126.71 419.498 125.845 420.048 125.205C420.598 124.565 421.393 124.245 422.433 124.245C422.693 124.245 422.948 124.27 423.198 124.32C423.458 124.37 423.713 124.44 423.963 124.53V120.9H425.688V132H424.053ZM420.993 128.61C420.993 129.28 421.103 129.77 421.323 130.08C421.553 130.39 421.873 130.545 422.283 130.545C422.513 130.545 422.758 130.48 423.018 130.35C423.278 130.21 423.593 129.95 423.963 129.57V126.09C423.473 125.89 423.023 125.79 422.613 125.79C422.033 125.79 421.618 125.97 421.368 126.33C421.118 126.69 420.993 127.18 420.993 127.8V128.61ZM431.292 132V121.8H434.397C435.157 121.8 435.757 121.91 436.197 122.13C436.647 122.35 436.967 122.66 437.157 123.06C437.357 123.46 437.457 123.93 437.457 124.47V124.89C437.457 125.68 437.117 126.285 436.437 126.705C436.917 126.895 437.282 127.17 437.532 127.53C437.782 127.89 437.907 128.32 437.907 128.82V129.24C437.907 129.79 437.807 130.275 437.607 130.695C437.407 131.105 437.077 131.425 436.617 131.655C436.157 131.885 435.542 132 434.772 132H431.292ZM434.397 123.45H433.092V126H434.397C434.797 126 435.097 125.91 435.297 125.73C435.507 125.54 435.612 125.285 435.612 124.965V124.47C435.612 124.15 435.507 123.9 435.297 123.72C435.097 123.54 434.797 123.45 434.397 123.45ZM434.772 127.65H433.092V130.35H434.772C435.192 130.35 435.512 130.25 435.732 130.05C435.952 129.85 436.062 129.58 436.062 129.24V128.745C436.062 128.405 435.952 128.14 435.732 127.95C435.512 127.75 435.192 127.65 434.772 127.65ZM444.372 132V130.995C443.912 131.395 443.482 131.69 443.082 131.88C442.682 132.06 442.277 132.15 441.867 132.15C441.187 132.15 440.662 131.92 440.292 131.46C439.922 130.99 439.737 130.335 439.737 129.495V124.395H441.462V129.285C441.462 130.125 441.772 130.545 442.392 130.545C442.642 130.545 442.912 130.485 443.202 130.365C443.502 130.245 443.862 130.015 444.282 129.675V124.395H446.007V132H444.372ZM450.512 130.65C450.882 130.65 451.187 130.59 451.427 130.47C451.667 130.34 451.787 130.15 451.787 129.9C451.787 129.68 451.707 129.51 451.547 129.39C451.397 129.26 451.122 129.145 450.722 129.045L449.867 128.82C449.207 128.65 448.717 128.365 448.397 127.965C448.087 127.565 447.932 127.09 447.932 126.54C447.932 125.89 448.157 125.345 448.607 124.905C449.057 124.465 449.752 124.245 450.692 124.245C451.072 124.245 451.472 124.29 451.892 124.38C452.312 124.47 452.752 124.615 453.212 124.815L452.717 126.285C452.297 126.085 451.917 125.945 451.577 125.865C451.237 125.785 450.937 125.745 450.677 125.745C449.967 125.745 449.612 125.985 449.612 126.465C449.612 126.655 449.672 126.805 449.792 126.915C449.922 127.025 450.157 127.125 450.497 127.215L451.352 127.44C452.082 127.63 452.612 127.92 452.942 128.31C453.282 128.7 453.452 129.19 453.452 129.78C453.452 130.48 453.212 131.05 452.732 131.49C452.262 131.93 451.517 132.15 450.497 132.15C449.627 132.15 448.712 131.95 447.752 131.55L448.217 130.125C448.687 130.315 449.112 130.45 449.492 130.53C449.872 130.61 450.212 130.65 450.512 130.65ZM456.993 122.955H455.178V121.17H456.993V122.955ZM456.948 132H455.223V124.395H456.948V132ZM463.044 125.85C462.794 125.85 462.509 125.91 462.189 126.03C461.869 126.15 461.489 126.385 461.049 126.735V132H459.324V124.395H460.959V125.415C461.429 125.005 461.874 124.71 462.294 124.53C462.714 124.34 463.139 124.245 463.569 124.245C464.299 124.245 464.854 124.48 465.234 124.95C465.614 125.41 465.804 126.06 465.804 126.9V132H464.079V127.11C464.079 126.27 463.734 125.85 463.044 125.85ZM473.859 131.565C473.339 131.775 472.849 131.925 472.389 132.015C471.929 132.105 471.494 132.15 471.084 132.15C469.954 132.15 469.099 131.83 468.519 131.19C467.939 130.55 467.649 129.7 467.649 128.64V127.74C467.649 127.03 467.779 126.415 468.039 125.895C468.299 125.375 468.669 124.97 469.149 124.68C469.629 124.39 470.194 124.245 470.844 124.245C471.374 124.245 471.869 124.355 472.329 124.575C472.799 124.785 473.179 125.12 473.469 125.58C473.769 126.03 473.919 126.61 473.919 127.32C473.919 127.53 473.904 127.755 473.874 127.995C473.844 128.225 473.794 128.47 473.724 128.73H469.314C469.334 129.35 469.489 129.815 469.779 130.125C470.069 130.435 470.534 130.59 471.174 130.59C471.514 130.59 471.864 130.55 472.224 130.47C472.594 130.39 472.974 130.27 473.364 130.11L473.859 131.565ZM470.844 125.7C470.384 125.7 470.024 125.85 469.764 126.15C469.514 126.44 469.369 126.86 469.329 127.41H472.209C472.219 127.36 472.224 127.315 472.224 127.275C472.224 127.225 472.224 127.18 472.224 127.14C472.224 126.66 472.089 126.3 471.819 126.06C471.549 125.82 471.224 125.7 470.844 125.7ZM478.036 130.65C478.406 130.65 478.711 130.59 478.951 130.47C479.191 130.34 479.311 130.15 479.311 129.9C479.311 129.68 479.231 129.51 479.071 129.39C478.921 129.26 478.646 129.145 478.246 129.045L477.391 128.82C476.731 128.65 476.241 128.365 475.921 127.965C475.611 127.565 475.456 127.09 475.456 126.54C475.456 125.89 475.681 125.345 476.131 124.905C476.581 124.465 477.276 124.245 478.216 124.245C478.596 124.245 478.996 124.29 479.416 124.38C479.836 124.47 480.276 124.615 480.736 124.815L480.241 126.285C479.821 126.085 479.441 125.945 479.101 125.865C478.761 125.785 478.461 125.745 478.201 125.745C477.491 125.745 477.136 125.985 477.136 126.465C477.136 126.655 477.196 126.805 477.316 126.915C477.446 127.025 477.681 127.125 478.021 127.215L478.876 127.44C479.606 127.63 480.136 127.92 480.466 128.31C480.806 128.7 480.976 129.19 480.976 129.78C480.976 130.48 480.736 131.05 480.256 131.49C479.786 131.93 479.041 132.15 478.021 132.15C477.151 132.15 476.236 131.95 475.276 131.55L475.741 130.125C476.211 130.315 476.636 130.45 477.016 130.53C477.396 130.61 477.736 130.65 478.036 130.65ZM484.877 130.65C485.247 130.65 485.552 130.59 485.792 130.47C486.032 130.34 486.152 130.15 486.152 129.9C486.152 129.68 486.072 129.51 485.912 129.39C485.762 129.26 485.487 129.145 485.087 129.045L484.232 128.82C483.572 128.65 483.082 128.365 482.762 127.965C482.452 127.565 482.297 127.09 482.297 126.54C482.297 125.89 482.522 125.345 482.972 124.905C483.422 124.465 484.117 124.245 485.057 124.245C485.437 124.245 485.837 124.29 486.257 124.38C486.677 124.47 487.117 124.615 487.577 124.815L487.082 126.285C486.662 126.085 486.282 125.945 485.942 125.865C485.602 125.785 485.302 125.745 485.042 125.745C484.332 125.745 483.977 125.985 483.977 126.465C483.977 126.655 484.037 126.805 484.157 126.915C484.287 127.025 484.522 127.125 484.862 127.215L485.717 127.44C486.447 127.63 486.977 127.92 487.307 128.31C487.647 128.7 487.817 129.19 487.817 129.78C487.817 130.48 487.577 131.05 487.097 131.49C486.627 131.93 485.882 132.15 484.862 132.15C483.992 132.15 483.077 131.95 482.117 131.55L482.582 130.125C483.052 130.315 483.477 130.45 483.857 130.53C484.237 130.61 484.577 130.65 484.877 130.65Z" fill="#010811"/>
<path d="M359.48 357H357.68V346.8H359.48V357ZM362.294 357V346.8H363.944C364.734 347.83 365.484 348.92 366.194 350.07C366.904 351.21 367.549 352.385 368.129 353.595L367.994 350.55V346.8H369.719V357H368.069C367.429 355.74 366.764 354.475 366.074 353.205C365.394 351.925 364.669 350.72 363.899 349.59L364.019 353.1V357H362.294ZM374.334 353.25V357H372.534V346.8H375.939C376.969 346.8 377.759 347.065 378.309 347.595C378.869 348.115 379.149 348.815 379.149 349.695V350.34C379.149 350.92 379.024 351.43 378.774 351.87C378.524 352.31 378.164 352.645 377.694 352.875C378.514 354.275 379.214 355.65 379.794 357H377.739C377.239 355.75 376.644 354.5 375.954 353.25H374.334ZM375.939 348.45H374.334V351.6H375.939C376.379 351.6 376.714 351.49 376.944 351.27C377.184 351.04 377.304 350.73 377.304 350.34V349.695C377.304 349.315 377.184 349.015 376.944 348.795C376.714 348.565 376.379 348.45 375.939 348.45ZM380.794 353.025V351.525H385.354V353.025H380.794ZM392.322 357H390.522V346.8H392.322V357ZM398.631 350.85C398.381 350.85 398.096 350.91 397.776 351.03C397.456 351.15 397.076 351.385 396.636 351.735V357H394.911V349.395H396.546V350.415C397.016 350.005 397.461 349.71 397.881 349.53C398.301 349.34 398.726 349.245 399.156 349.245C399.886 349.245 400.441 349.48 400.821 349.95C401.201 350.41 401.391 351.06 401.391 351.9V357H399.666V352.11C399.666 351.27 399.321 350.85 398.631 350.85ZM408.126 357V355.965C407.666 356.425 407.266 356.74 406.926 356.91C406.596 357.07 406.251 357.15 405.891 357.15C405.071 357.15 404.431 356.84 403.971 356.22C403.521 355.6 403.296 354.73 403.296 353.61V352.8C403.296 351.71 403.571 350.845 404.121 350.205C404.671 349.565 405.466 349.245 406.506 349.245C406.766 349.245 407.021 349.27 407.271 349.32C407.531 349.37 407.786 349.44 408.036 349.53V345.9H409.761V357H408.126ZM405.066 353.61C405.066 354.28 405.176 354.77 405.396 355.08C405.626 355.39 405.946 355.545 406.356 355.545C406.586 355.545 406.831 355.48 407.091 355.35C407.351 355.21 407.666 354.95 408.036 354.57V351.09C407.546 350.89 407.096 350.79 406.686 350.79C406.106 350.79 405.691 350.97 405.441 351.33C405.191 351.69 405.066 352.18 405.066 352.8V353.61ZM413.908 347.955H412.093V346.17H413.908V347.955ZM413.863 357H412.138V349.395H413.863V357ZM421.999 357.075C421.489 357.075 421.079 356.97 420.769 356.76C420.469 356.55 420.249 356.29 420.109 355.98C419.679 356.38 419.264 356.675 418.864 356.865C418.464 357.055 418.034 357.15 417.574 357.15C416.904 357.15 416.409 356.935 416.089 356.505C415.779 356.075 415.624 355.53 415.624 354.87C415.624 354.43 415.704 354.045 415.864 353.715C416.034 353.375 416.309 353.11 416.689 352.92C417.069 352.73 417.589 352.635 418.249 352.635C418.509 352.635 418.779 352.655 419.059 352.695C419.339 352.725 419.619 352.765 419.899 352.815V351.93C419.899 351.51 419.784 351.225 419.554 351.075C419.324 350.915 419.014 350.835 418.624 350.835C418.324 350.835 417.994 350.875 417.634 350.955C417.284 351.035 416.904 351.16 416.494 351.33L415.999 349.86C417.009 349.45 417.924 349.245 418.744 349.245C419.484 349.245 420.054 349.37 420.454 349.62C420.864 349.87 421.149 350.2 421.309 350.61C421.469 351.02 421.549 351.46 421.549 351.93V354.855C421.549 355.005 421.589 355.15 421.669 355.29C421.759 355.42 421.929 355.485 422.179 355.485H422.344V357.075H421.999ZM417.289 354.84C417.289 355.11 417.349 355.325 417.469 355.485C417.589 355.635 417.764 355.71 417.994 355.71C418.224 355.71 418.484 355.65 418.774 355.53C419.064 355.41 419.439 355.13 419.899 354.69V354.045C419.379 353.955 418.869 353.91 418.369 353.91C417.979 353.91 417.699 353.99 417.529 354.15C417.369 354.31 417.289 354.54 417.289 354.84ZM427.562 350.85C427.312 350.85 427.027 350.91 426.707 351.03C426.387 351.15 426.007 351.385 425.567 351.735V357H423.842V349.395H425.477V350.415C425.947 350.005 426.392 349.71 426.812 349.53C427.232 349.34 427.657 349.245 428.087 349.245C428.817 349.245 429.372 349.48 429.752 349.95C430.132 350.41 430.322 351.06 430.322 351.9V357H428.597V352.11C428.597 351.27 428.252 350.85 427.562 350.85ZM432.02 353.025V351.525H436.58V353.025H432.02ZM440.545 353.25V357H438.745V346.8H442.15C443.18 346.8 443.97 347.065 444.52 347.595C445.08 348.115 445.36 348.815 445.36 349.695V350.34C445.36 350.92 445.235 351.43 444.985 351.87C444.735 352.31 444.375 352.645 443.905 352.875C444.725 354.275 445.425 355.65 446.005 357H443.95C443.45 355.75 442.855 354.5 442.165 353.25H440.545ZM442.15 348.45H440.545V351.6H442.15C442.59 351.6 442.925 351.49 443.155 351.27C443.395 351.04 443.515 350.73 443.515 350.34V349.695C443.515 349.315 443.395 349.015 443.155 348.795C442.925 348.565 442.59 348.45 442.15 348.45ZM452.19 357V355.995C451.73 356.395 451.3 356.69 450.9 356.88C450.5 357.06 450.095 357.15 449.685 357.15C449.005 357.15 448.48 356.92 448.11 356.46C447.74 355.99 447.555 355.335 447.555 354.495V349.395H449.28V354.285C449.28 355.125 449.59 355.545 450.21 355.545C450.46 355.545 450.73 355.485 451.02 355.365C451.32 355.245 451.68 355.015 452.1 354.675V349.395H453.825V357H452.19ZM459.455 357.15C459.205 357.15 458.95 357.125 458.69 357.075C458.44 357.025 458.185 356.955 457.925 356.865V360.195H456.2V349.395H457.835V350.43C458.305 349.96 458.705 349.645 459.035 349.485C459.365 349.325 459.71 349.245 460.07 349.245C460.9 349.245 461.54 349.555 461.99 350.175C462.44 350.795 462.665 351.665 462.665 352.785V353.595C462.665 354.685 462.39 355.55 461.84 356.19C461.29 356.83 460.495 357.15 459.455 357.15ZM459.605 350.85C459.375 350.85 459.13 350.92 458.87 351.06C458.62 351.19 458.305 351.445 457.925 351.825V355.305C458.415 355.505 458.865 355.605 459.275 355.605C459.855 355.605 460.27 355.425 460.52 355.065C460.77 354.705 460.895 354.215 460.895 353.595V352.785C460.895 352.115 460.78 351.625 460.55 351.315C460.33 351.005 460.015 350.85 459.605 350.85ZM470.442 356.565C469.922 356.775 469.432 356.925 468.972 357.015C468.512 357.105 468.077 357.15 467.667 357.15C466.537 357.15 465.682 356.83 465.102 356.19C464.522 355.55 464.232 354.7 464.232 353.64V352.74C464.232 352.03 464.362 351.415 464.622 350.895C464.882 350.375 465.252 349.97 465.732 349.68C466.212 349.39 466.777 349.245 467.427 349.245C467.957 349.245 468.452 349.355 468.912 349.575C469.382 349.785 469.762 350.12 470.052 350.58C470.352 351.03 470.502 351.61 470.502 352.32C470.502 352.53 470.487 352.755 470.457 352.995C470.427 353.225 470.377 353.47 470.307 353.73H465.897C465.917 354.35 466.072 354.815 466.362 355.125C466.652 355.435 467.117 355.59 467.757 355.59C468.097 355.59 468.447 355.55 468.807 355.47C469.177 355.39 469.557 355.27 469.947 355.11L470.442 356.565ZM467.427 350.7C466.967 350.7 466.607 350.85 466.347 351.15C466.097 351.44 465.952 351.86 465.912 352.41H468.792C468.802 352.36 468.807 352.315 468.807 352.275C468.807 352.225 468.807 352.18 468.807 352.14C468.807 351.66 468.672 351.3 468.402 351.06C468.132 350.82 467.807 350.7 467.427 350.7ZM478.264 356.565C477.744 356.775 477.254 356.925 476.794 357.015C476.334 357.105 475.899 357.15 475.489 357.15C474.359 357.15 473.504 356.83 472.924 356.19C472.344 355.55 472.054 354.7 472.054 353.64V352.74C472.054 352.03 472.184 351.415 472.444 350.895C472.704 350.375 473.074 349.97 473.554 349.68C474.034 349.39 474.599 349.245 475.249 349.245C475.779 349.245 476.274 349.355 476.734 349.575C477.204 349.785 477.584 350.12 477.874 350.58C478.174 351.03 478.324 351.61 478.324 352.32C478.324 352.53 478.309 352.755 478.279 352.995C478.249 353.225 478.199 353.47 478.129 353.73H473.719C473.739 354.35 473.894 354.815 474.184 355.125C474.474 355.435 474.939 355.59 475.579 355.59C475.919 355.59 476.269 355.55 476.629 355.47C476.999 355.39 477.379 355.27 477.769 355.11L478.264 356.565ZM475.249 350.7C474.789 350.7 474.429 350.85 474.169 351.15C473.919 351.44 473.774 351.86 473.734 352.41H476.614C476.624 352.36 476.629 352.315 476.629 352.275C476.629 352.225 476.629 352.18 476.629 352.14C476.629 351.66 476.494 351.3 476.224 351.06C475.954 350.82 475.629 350.7 475.249 350.7ZM482.441 355.65C482.811 355.65 483.116 355.59 483.356 355.47C483.596 355.34 483.716 355.15 483.716 354.9C483.716 354.68 483.636 354.51 483.476 354.39C483.326 354.26 483.051 354.145 482.651 354.045L481.796 353.82C481.136 353.65 480.646 353.365 480.326 352.965C480.016 352.565 479.861 352.09 479.861 351.54C479.861 350.89 480.086 350.345 480.536 349.905C480.986 349.465 481.681 349.245 482.621 349.245C483.001 349.245 483.401 349.29 483.821 349.38C484.241 349.47 484.681 349.615 485.141 349.815L484.646 351.285C484.226 351.085 483.846 350.945 483.506 350.865C483.166 350.785 482.866 350.745 482.606 350.745C481.896 350.745 481.541 350.985 481.541 351.465C481.541 351.655 481.601 351.805 481.721 351.915C481.851 352.025 482.086 352.125 482.426 352.215L483.281 352.44C484.011 352.63 484.541 352.92 484.871 353.31C485.211 353.7 485.381 354.19 485.381 354.78C485.381 355.48 485.141 356.05 484.661 356.49C484.191 356.93 483.446 357.15 482.426 357.15C481.556 357.15 480.641 356.95 479.681 356.55L480.146 355.125C480.616 355.315 481.041 355.45 481.421 355.53C481.801 355.61 482.141 355.65 482.441 355.65Z" fill="#010811"/>
<path d="M363.625 404.82V406.965C363.625 408.265 363.3 409.29 362.65 410.04C362 410.78 361.05 411.15 359.8 411.15C358.54 411.15 357.585 410.78 356.935 410.04C356.295 409.29 355.975 408.265 355.975 406.965V404.82C355.975 403.52 356.295 402.5 356.935 401.76C357.585 401.02 358.54 400.65 359.8 400.65C361.05 400.65 362 401.02 362.65 401.76C363.3 402.5 363.625 403.52 363.625 404.82ZM361.78 404.82C361.78 404 361.62 403.385 361.3 402.975C360.98 402.555 360.48 402.345 359.8 402.345C359.12 402.345 358.62 402.555 358.3 402.975C357.98 403.385 357.82 404 357.82 404.82V406.965C357.82 407.785 357.98 408.405 358.3 408.825C358.62 409.245 359.12 409.455 359.8 409.455C360.48 409.455 360.98 409.245 361.3 408.825C361.62 408.405 361.78 407.785 361.78 406.965V404.82ZM369.5 404.85C369.25 404.85 368.965 404.91 368.645 405.03C368.325 405.15 367.945 405.385 367.505 405.735V411H365.78V403.395H367.415V404.415C367.885 404.005 368.33 403.71 368.75 403.53C369.17 403.34 369.595 403.245 370.025 403.245C370.755 403.245 371.31 403.48 371.69 403.95C372.07 404.41 372.26 405.06 372.26 405.9V411H370.535V406.11C370.535 405.27 370.19 404.85 369.5 404.85ZM374.494 408.855V399.9H376.219V408.855C376.219 409.005 376.254 409.15 376.324 409.29C376.404 409.42 376.554 409.485 376.774 409.485H377.014V411.075H376.594C376.024 411.075 375.589 410.965 375.289 410.745C374.989 410.525 374.779 410.245 374.659 409.905C374.549 409.565 374.494 409.215 374.494 408.855ZM380.455 401.955H378.64V400.17H380.455V401.955ZM380.41 411H378.685V403.395H380.41V411ZM386.507 404.85C386.257 404.85 385.972 404.91 385.652 405.03C385.332 405.15 384.952 405.385 384.512 405.735V411H382.787V403.395H384.422V404.415C384.892 404.005 385.337 403.71 385.757 403.53C386.177 403.34 386.602 403.245 387.032 403.245C387.762 403.245 388.317 403.48 388.697 403.95C389.077 404.41 389.267 405.06 389.267 405.9V411H387.542V406.11C387.542 405.27 387.197 404.85 386.507 404.85ZM397.321 410.565C396.801 410.775 396.311 410.925 395.851 411.015C395.391 411.105 394.956 411.15 394.546 411.15C393.416 411.15 392.561 410.83 391.981 410.19C391.401 409.55 391.111 408.7 391.111 407.64V406.74C391.111 406.03 391.241 405.415 391.501 404.895C391.761 404.375 392.131 403.97 392.611 403.68C393.091 403.39 393.656 403.245 394.306 403.245C394.836 403.245 395.331 403.355 395.791 403.575C396.261 403.785 396.641 404.12 396.931 404.58C397.231 405.03 397.381 405.61 397.381 406.32C397.381 406.53 397.366 406.755 397.336 406.995C397.306 407.225 397.256 407.47 397.186 407.73H392.776C392.796 408.35 392.951 408.815 393.241 409.125C393.531 409.435 393.996 409.59 394.636 409.59C394.976 409.59 395.326 409.55 395.686 409.47C396.056 409.39 396.436 409.27 396.826 409.11L397.321 410.565ZM394.306 404.7C393.846 404.7 393.486 404.85 393.226 405.15C392.976 405.44 392.831 405.86 392.791 406.41H395.671C395.681 406.36 395.686 406.315 395.686 406.275C395.686 406.225 395.686 406.18 395.686 406.14C395.686 405.66 395.551 405.3 395.281 405.06C395.011 404.82 394.686 404.7 394.306 404.7Z" fill="#010811"/>
<path d="M129.58 3.16233C129.659 2.65125 129.255 2.16427 128.676 2.07462L119.251 0.61367C118.673 0.52402 118.14 0.865651 118.06 1.37673C117.981 1.8878 118.386 2.37479 118.964 2.46444L127.342 3.76306L126.195 11.1661C126.115 11.6772 126.52 12.1642 127.098 12.2538C127.677 12.3435 128.21 12.0019 128.289 11.4908L129.58 3.16233ZM87.0406 30.7691L129.172 3.76913L127.894 2.23087L85.7624 29.2309L87.0406 30.7691Z" fill="white"/>
<path d="M106.806 52.1623C106.886 51.6513 106.481 51.1643 105.903 51.0746L96.4773 49.6137C95.8989 49.524 95.3658 49.8657 95.2866 50.3767C95.2074 50.8878 95.612 51.3748 96.1904 51.4644L104.568 52.7631L103.421 60.1661C103.342 60.6772 103.746 61.1642 104.325 61.2538C104.903 61.3435 105.436 61.0019 105.515 60.4908L106.806 52.1623ZM64.2668 79.7691L106.398 52.7691L105.12 51.2309L62.9887 78.2309L64.2668 79.7691Z" fill="white"/>
<path d="M86.31 101.162C86.3892 100.651 85.9846 100.164 85.4062 100.075L75.9809 98.6137C75.4025 98.524 74.8694 98.8657 74.7902 99.3767C74.711 99.8878 75.1157 100.375 75.694 100.464L84.0721 101.763L82.9246 109.166C82.8454 109.677 83.25 110.164 83.8284 110.254C84.4068 110.343 84.9399 110.002 85.0191 109.491L86.31 101.162ZM43.7705 128.769L85.9019 101.769L84.6237 100.231L42.4923 127.231L43.7705 128.769Z" fill="white"/>
<path d="M72.6458 143.162C72.725 142.651 72.3204 142.164 71.742 142.075L62.3167 140.614C61.7383 140.524 61.2052 140.866 61.126 141.377C61.0468 141.888 61.4514 142.375 62.0298 142.464L70.4079 143.763L69.2604 151.166C69.1811 151.677 69.5858 152.164 70.1642 152.254C70.7426 152.343 71.2756 152.002 71.3549 151.491L72.6458 143.162ZM30.1063 170.769L72.2376 143.769L70.9595 142.231L28.8281 169.231L30.1063 170.769Z" fill="white"/>
<path d="M44.1786 59.1623C44.2579 58.6513 43.8532 58.1643 43.2748 58.0746L33.8495 56.6137C33.2712 56.524 32.7381 56.8657 32.6589 57.3767C32.5796 57.8878 32.9843 58.3748 33.5627 58.4644L41.9407 59.7631L40.7932 67.1661C40.714 67.6772 41.1186 68.1642 41.697 68.2538C42.2754 68.3435 42.8085 68.0019 42.8877 67.4908L44.1786 59.1623ZM1.63909 86.7691L43.7705 59.7691L42.4923 58.2309L0.360906 85.2309L1.63909 86.7691Z" fill="white"/>
<path d="M197.901 45.1623C197.981 44.6513 197.576 44.1643 196.997 44.0746L187.572 42.6137C186.994 42.524 186.461 42.8657 186.382 43.3767C186.302 43.8878 186.707 44.3748 187.285 44.4644L195.663 45.7631L194.516 53.1661C194.437 53.6772 194.841 54.1642 195.42 54.2538C195.998 54.3435 196.531 54.0019 196.61 53.4908L197.901 45.1623ZM155.362 72.7691L197.493 45.7691L196.215 44.2309L154.084 71.2309L155.362 72.7691Z" fill="white"/>
<path d="M172.85 25.1623C172.929 24.6513 172.525 24.1643 171.946 24.0746L162.521 22.6137C161.943 22.524 161.41 22.8657 161.33 23.3767C161.251 23.8878 161.656 24.3748 162.234 24.4644L170.612 25.7631L169.465 33.1661C169.385 33.6772 169.79 34.1642 170.369 34.2538C170.947 34.3435 171.48 34.0019 171.559 33.4908L172.85 25.1623ZM130.311 52.7691L172.442 25.7691L171.164 24.2309L129.032 51.2309L130.311 52.7691Z" fill="white"/>
<path d="M145.802 180.34C145.552 180.49 145.137 180.665 144.557 180.865C143.987 181.055 143.317 181.15 142.547 181.15C141.677 181.15 140.947 180.97 140.357 180.61C139.777 180.25 139.337 179.755 139.037 179.125C138.737 178.495 138.587 177.775 138.587 176.965V174.82C138.587 173.99 138.737 173.265 139.037 172.645C139.337 172.015 139.782 171.525 140.372 171.175C140.972 170.825 141.722 170.65 142.622 170.65C143.062 170.65 143.517 170.7 143.987 170.8C144.457 170.89 144.972 171.06 145.532 171.31L144.977 172.885C144.487 172.695 144.062 172.56 143.702 172.48C143.352 172.39 143.002 172.345 142.652 172.345C141.872 172.345 141.307 172.57 140.957 173.02C140.607 173.46 140.432 174.06 140.432 174.82V176.965C140.432 177.685 140.607 178.275 140.957 178.735C141.317 179.195 141.877 179.425 142.637 179.425C142.867 179.425 143.117 179.405 143.387 179.365C143.657 179.325 143.917 179.27 144.167 179.2V176.965H142.517V175.39H145.802V180.34ZM150.31 179.485C151.47 179.485 152.05 179.055 152.05 178.195C152.05 177.845 151.96 177.57 151.78 177.37C151.61 177.17 151.29 176.995 150.82 176.845L149.59 176.44C148.12 175.96 147.385 174.995 147.385 173.545C147.385 172.705 147.645 172.015 148.165 171.475C148.695 170.925 149.52 170.65 150.64 170.65C151.11 170.65 151.575 170.705 152.035 170.815C152.495 170.915 152.985 171.08 153.505 171.31L152.95 172.855C152.47 172.665 152.06 172.53 151.72 172.45C151.39 172.36 151.05 172.315 150.7 172.315C150.24 172.315 149.875 172.4 149.605 172.57C149.345 172.73 149.215 173.025 149.215 173.455C149.215 173.775 149.305 174.04 149.485 174.25C149.675 174.45 149.985 174.62 150.415 174.76L151.645 175.165C152.385 175.415 152.94 175.78 153.31 176.26C153.69 176.73 153.88 177.355 153.88 178.135C153.88 179.035 153.595 179.765 153.025 180.325C152.455 180.875 151.56 181.15 150.34 181.15C149.86 181.15 149.36 181.095 148.84 180.985C148.33 180.865 147.77 180.665 147.16 180.385L147.715 178.84C148.275 179.08 148.75 179.25 149.14 179.35C149.54 179.44 149.93 179.485 150.31 179.485ZM154.639 172.525V170.8H162.139V172.525H159.289V181H157.489V172.525H154.639ZM168.553 181H166.753V170.8H168.553V181ZM175.597 181V179.965C175.137 180.425 174.737 180.74 174.397 180.91C174.067 181.07 173.722 181.15 173.362 181.15C172.542 181.15 171.902 180.84 171.442 180.22C170.992 179.6 170.767 178.73 170.767 177.61V176.8C170.767 175.71 171.042 174.845 171.592 174.205C172.142 173.565 172.937 173.245 173.977 173.245C174.237 173.245 174.492 173.27 174.742 173.32C175.002 173.37 175.257 173.44 175.507 173.53V169.9H177.232V181H175.597ZM172.537 177.61C172.537 178.28 172.647 178.77 172.867 179.08C173.097 179.39 173.417 179.545 173.827 179.545C174.057 179.545 174.302 179.48 174.562 179.35C174.822 179.21 175.137 178.95 175.507 178.57V175.09C175.017 174.89 174.567 174.79 174.157 174.79C173.577 174.79 173.162 174.97 172.912 175.33C172.662 175.69 172.537 176.18 172.537 176.8V177.61ZM185.384 180.565C184.864 180.775 184.374 180.925 183.914 181.015C183.454 181.105 183.019 181.15 182.609 181.15C181.479 181.15 180.624 180.83 180.044 180.19C179.464 179.55 179.174 178.7 179.174 177.64V176.74C179.174 176.03 179.304 175.415 179.564 174.895C179.824 174.375 180.194 173.97 180.674 173.68C181.154 173.39 181.719 173.245 182.369 173.245C182.899 173.245 183.394 173.355 183.854 173.575C184.324 173.785 184.704 174.12 184.994 174.58C185.294 175.03 185.444 175.61 185.444 176.32C185.444 176.53 185.429 176.755 185.399 176.995C185.369 177.225 185.319 177.47 185.249 177.73H180.839C180.859 178.35 181.014 178.815 181.304 179.125C181.594 179.435 182.059 179.59 182.699 179.59C183.039 179.59 183.389 179.55 183.749 179.47C184.119 179.39 184.499 179.27 184.889 179.11L185.384 180.565ZM182.369 174.7C181.909 174.7 181.549 174.85 181.289 175.15C181.039 175.44 180.894 175.86 180.854 176.41H183.734C183.744 176.36 183.749 176.315 183.749 176.275C183.749 176.225 183.749 176.18 183.749 176.14C183.749 175.66 183.614 175.3 183.344 175.06C183.074 174.82 182.749 174.7 182.369 174.7ZM191.151 174.85C190.901 174.85 190.616 174.91 190.296 175.03C189.976 175.15 189.596 175.385 189.156 175.735V181H187.431V173.395H189.066V174.415C189.536 174.005 189.981 173.71 190.401 173.53C190.821 173.34 191.246 173.245 191.676 173.245C192.406 173.245 192.961 173.48 193.341 173.95C193.721 174.41 193.911 175.06 193.911 175.9V181H192.186V176.11C192.186 175.27 191.841 174.85 191.151 174.85ZM200.766 180.745C200.506 180.865 200.206 180.96 199.866 181.03C199.526 181.11 199.181 181.15 198.831 181.15C198.251 181.15 197.786 181.03 197.436 180.79C197.086 180.55 196.831 180.215 196.671 179.785C196.521 179.355 196.446 178.865 196.446 178.315V174.895H195.216V173.395H196.446V171.415H198.171V173.395H200.541V174.895H198.171V178.315C198.171 178.775 198.256 179.095 198.426 179.275C198.606 179.445 198.861 179.53 199.191 179.53C199.351 179.53 199.521 179.515 199.701 179.485C199.891 179.445 200.101 179.38 200.331 179.29L200.766 180.745ZM203.923 171.955H202.108V170.17H203.923V171.955ZM203.878 181H202.153V173.395H203.878V181ZM208.279 172.75V173.395H212.884V181H211.159V174.895H208.279V181H206.554V174.895H205.324V173.395H206.554V172.75C206.554 172.16 206.659 171.64 206.869 171.19C207.079 170.74 207.414 170.39 207.874 170.14C208.344 169.88 208.954 169.75 209.704 169.75C210.114 169.75 210.554 169.8 211.024 169.9C211.494 169.99 211.984 170.16 212.494 170.41L211.864 171.82C211.414 171.65 211.019 171.535 210.679 171.475C210.339 171.405 210.029 171.37 209.749 171.37C209.289 171.37 208.929 171.47 208.669 171.67C208.409 171.86 208.279 172.22 208.279 172.75ZM216.568 176.755V177.64C216.568 178.28 216.683 178.76 216.913 179.08C217.143 179.4 217.513 179.56 218.023 179.56C218.273 179.56 218.553 179.53 218.863 179.47C219.183 179.4 219.528 179.295 219.898 179.155L220.393 180.61C219.943 180.79 219.518 180.925 219.118 181.015C218.718 181.105 218.323 181.15 217.933 181.15C216.933 181.15 216.168 180.83 215.638 180.19C215.108 179.55 214.843 178.7 214.843 177.64V176.755C214.843 175.685 215.108 174.835 215.638 174.205C216.168 173.565 216.933 173.245 217.933 173.245C218.313 173.245 218.698 173.29 219.088 173.38C219.478 173.47 219.888 173.6 220.318 173.77L219.823 175.255C219.103 174.975 218.503 174.835 218.023 174.835C217.513 174.835 217.143 174.995 216.913 175.315C216.683 175.625 216.568 176.105 216.568 176.755ZM227.732 181.075C227.222 181.075 226.812 180.97 226.502 180.76C226.202 180.55 225.982 180.29 225.842 179.98C225.412 180.38 224.997 180.675 224.597 180.865C224.197 181.055 223.767 181.15 223.307 181.15C222.637 181.15 222.142 180.935 221.822 180.505C221.512 180.075 221.357 179.53 221.357 178.87C221.357 178.43 221.437 178.045 221.597 177.715C221.767 177.375 222.042 177.11 222.422 176.92C222.802 176.73 223.322 176.635 223.982 176.635C224.242 176.635 224.512 176.655 224.792 176.695C225.072 176.725 225.352 176.765 225.632 176.815V175.93C225.632 175.51 225.517 175.225 225.287 175.075C225.057 174.915 224.747 174.835 224.357 174.835C224.057 174.835 223.727 174.875 223.367 174.955C223.017 175.035 222.637 175.16 222.227 175.33L221.732 173.86C222.742 173.45 223.657 173.245 224.477 173.245C225.217 173.245 225.787 173.37 226.187 173.62C226.597 173.87 226.882 174.2 227.042 174.61C227.202 175.02 227.282 175.46 227.282 175.93V178.855C227.282 179.005 227.322 179.15 227.402 179.29C227.492 179.42 227.662 179.485 227.912 179.485H228.077V181.075H227.732ZM223.022 178.84C223.022 179.11 223.082 179.325 223.202 179.485C223.322 179.635 223.497 179.71 223.727 179.71C223.957 179.71 224.217 179.65 224.507 179.53C224.797 179.41 225.172 179.13 225.632 178.69V178.045C225.112 177.955 224.602 177.91 224.102 177.91C223.712 177.91 223.432 177.99 223.262 178.15C223.102 178.31 223.022 178.54 223.022 178.84ZM234.149 180.745C233.889 180.865 233.589 180.96 233.249 181.03C232.909 181.11 232.564 181.15 232.214 181.15C231.634 181.15 231.169 181.03 230.819 180.79C230.469 180.55 230.214 180.215 230.054 179.785C229.904 179.355 229.829 178.865 229.829 178.315V174.895H228.599V173.395H229.829V171.415H231.554V173.395H233.924V174.895H231.554V178.315C231.554 178.775 231.639 179.095 231.809 179.275C231.989 179.445 232.244 179.53 232.574 179.53C232.734 179.53 232.904 179.515 233.084 179.485C233.274 179.445 233.484 179.38 233.714 179.29L234.149 180.745ZM237.306 171.955H235.491V170.17H237.306V171.955ZM237.261 181H235.536V173.395H237.261V181ZM245.863 176.74V177.64C245.863 178.7 245.573 179.55 244.993 180.19C244.413 180.83 243.593 181.15 242.533 181.15C241.473 181.15 240.653 180.83 240.073 180.19C239.493 179.55 239.203 178.7 239.203 177.64V176.74C239.203 175.68 239.488 174.835 240.058 174.205C240.638 173.565 241.463 173.245 242.533 173.245C243.603 173.245 244.423 173.565 244.993 174.205C245.573 174.835 245.863 175.68 245.863 176.74ZM244.093 176.74C244.093 176.13 243.958 175.655 243.688 175.315C243.418 174.965 243.033 174.79 242.533 174.79C242.033 174.79 241.648 174.965 241.378 175.315C241.108 175.655 240.973 176.13 240.973 176.74V177.64C240.973 178.25 241.108 178.73 241.378 179.08C241.648 179.43 242.033 179.605 242.533 179.605C243.033 179.605 243.418 179.43 243.688 179.08C243.958 178.73 244.093 178.25 244.093 177.64V176.74ZM251.517 174.85C251.267 174.85 250.982 174.91 250.662 175.03C250.342 175.15 249.962 175.385 249.522 175.735V181H247.797V173.395H249.432V174.415C249.902 174.005 250.347 173.71 250.767 173.53C251.187 173.34 251.612 173.245 252.042 173.245C252.772 173.245 253.327 173.48 253.707 173.95C254.087 174.41 254.277 175.06 254.277 175.9V181H252.552V176.11C252.552 175.27 252.207 174.85 251.517 174.85ZM139.052 199V188.8H140.702C141.492 189.83 142.242 190.92 142.952 192.07C143.662 193.21 144.307 194.385 144.887 195.595L144.752 192.55V188.8H146.477V199H144.827C144.187 197.74 143.522 196.475 142.832 195.205C142.152 193.925 141.427 192.72 140.657 191.59L140.777 195.1V199H139.052ZM153.597 199V197.995C153.137 198.395 152.707 198.69 152.307 198.88C151.907 199.06 151.502 199.15 151.092 199.15C150.412 199.15 149.887 198.92 149.517 198.46C149.147 197.99 148.962 197.335 148.962 196.495V191.395H150.687V196.285C150.687 197.125 150.997 197.545 151.617 197.545C151.867 197.545 152.137 197.485 152.427 197.365C152.727 197.245 153.087 197.015 153.507 196.675V191.395H155.232V199H153.597ZM159.332 193.735V199H157.607V191.395H159.242V192.4C159.712 191.99 160.147 191.695 160.547 191.515C160.947 191.335 161.357 191.245 161.777 191.245C162.707 191.245 163.342 191.655 163.682 192.475C164.182 192.035 164.647 191.72 165.077 191.53C165.507 191.34 165.942 191.245 166.382 191.245C167.082 191.245 167.617 191.48 167.987 191.95C168.357 192.41 168.542 193.06 168.542 193.9V199H166.817V194.11C166.817 193.27 166.497 192.85 165.857 192.85C165.607 192.85 165.332 192.91 165.032 193.03C164.732 193.15 164.367 193.385 163.937 193.735V199H162.212V194.11C162.212 193.27 161.892 192.85 161.252 192.85C161.002 192.85 160.727 192.91 160.427 193.03C160.127 193.15 159.762 193.385 159.332 193.735ZM177.225 195.595C177.225 196.685 176.955 197.55 176.415 198.19C175.875 198.83 175.085 199.15 174.045 199.15C172.965 199.15 171.87 198.85 170.76 198.25V187.9H172.485V192.4C172.945 191.94 173.34 191.635 173.67 191.485C174 191.325 174.34 191.245 174.69 191.245C175.49 191.245 176.11 191.555 176.55 192.175C177 192.795 177.225 193.665 177.225 194.785V195.595ZM174.225 192.85C173.985 192.85 173.73 192.92 173.46 193.06C173.2 193.2 172.875 193.475 172.485 193.885V197.29C172.755 197.4 173 197.48 173.22 197.53C173.45 197.58 173.675 197.605 173.895 197.605C174.455 197.605 174.855 197.425 175.095 197.065C175.335 196.705 175.455 196.215 175.455 195.595V194.785C175.455 194.115 175.345 193.625 175.125 193.315C174.915 193.005 174.615 192.85 174.225 192.85ZM184.988 198.565C184.468 198.775 183.978 198.925 183.518 199.015C183.058 199.105 182.623 199.15 182.213 199.15C181.083 199.15 180.228 198.83 179.648 198.19C179.068 197.55 178.778 196.7 178.778 195.64V194.74C178.778 194.03 178.908 193.415 179.168 192.895C179.428 192.375 179.798 191.97 180.278 191.68C180.758 191.39 181.323 191.245 181.973 191.245C182.503 191.245 182.998 191.355 183.458 191.575C183.928 191.785 184.308 192.12 184.598 192.58C184.898 193.03 185.048 193.61 185.048 194.32C185.048 194.53 185.033 194.755 185.003 194.995C184.973 195.225 184.923 195.47 184.853 195.73H180.443C180.463 196.35 180.618 196.815 180.908 197.125C181.198 197.435 181.663 197.59 182.303 197.59C182.643 197.59 182.993 197.55 183.353 197.47C183.723 197.39 184.103 197.27 184.493 197.11L184.988 198.565ZM181.973 192.7C181.513 192.7 181.153 192.85 180.893 193.15C180.643 193.44 180.498 193.86 180.458 194.41H183.338C183.348 194.36 183.353 194.315 183.353 194.275C183.353 194.225 183.353 194.18 183.353 194.14C183.353 193.66 183.218 193.3 182.948 193.06C182.678 192.82 182.353 192.7 181.973 192.7ZM191.325 192.97C190.855 192.97 190.405 193.045 189.975 193.195C189.555 193.335 189.15 193.565 188.76 193.885V199H187.035V191.395H188.67V192.565C189.18 192.085 189.635 191.745 190.035 191.545C190.435 191.345 190.865 191.245 191.325 191.245V192.97ZM195.389 194.245C195.389 193.085 195.639 191.96 196.139 190.87C196.649 189.78 197.414 188.74 198.434 187.75L199.634 188.875C198.784 189.745 198.159 190.615 197.759 191.485C197.359 192.345 197.159 193.265 197.159 194.245V194.8C197.159 195.77 197.359 196.69 197.759 197.56C198.159 198.43 198.784 199.3 199.634 200.17L198.434 201.295C197.414 200.305 196.649 199.265 196.139 198.175C195.639 197.085 195.389 195.96 195.389 194.8V194.245ZM207.516 198.34C207.266 198.49 206.851 198.665 206.271 198.865C205.701 199.055 205.031 199.15 204.261 199.15C203.391 199.15 202.661 198.97 202.071 198.61C201.491 198.25 201.051 197.755 200.751 197.125C200.451 196.495 200.301 195.775 200.301 194.965V192.82C200.301 191.99 200.451 191.265 200.751 190.645C201.051 190.015 201.496 189.525 202.086 189.175C202.686 188.825 203.436 188.65 204.336 188.65C204.776 188.65 205.231 188.7 205.701 188.8C206.171 188.89 206.686 189.06 207.246 189.31L206.691 190.885C206.201 190.695 205.776 190.56 205.416 190.48C205.066 190.39 204.716 190.345 204.366 190.345C203.586 190.345 203.021 190.57 202.671 191.02C202.321 191.46 202.146 192.06 202.146 192.82V194.965C202.146 195.685 202.321 196.275 202.671 196.735C203.031 197.195 203.591 197.425 204.351 197.425C204.581 197.425 204.831 197.405 205.101 197.365C205.371 197.325 205.631 197.27 205.881 197.2V194.965H204.231V193.39H207.516V198.34ZM212.024 197.485C213.184 197.485 213.764 197.055 213.764 196.195C213.764 195.845 213.674 195.57 213.494 195.37C213.324 195.17 213.004 194.995 212.534 194.845L211.304 194.44C209.834 193.96 209.099 192.995 209.099 191.545C209.099 190.705 209.359 190.015 209.879 189.475C210.409 188.925 211.234 188.65 212.354 188.65C212.824 188.65 213.289 188.705 213.749 188.815C214.209 188.915 214.699 189.08 215.219 189.31L214.664 190.855C214.184 190.665 213.774 190.53 213.434 190.45C213.104 190.36 212.764 190.315 212.414 190.315C211.954 190.315 211.589 190.4 211.319 190.57C211.059 190.73 210.929 191.025 210.929 191.455C210.929 191.775 211.019 192.04 211.199 192.25C211.389 192.45 211.699 192.62 212.129 192.76L213.359 193.165C214.099 193.415 214.654 193.78 215.024 194.26C215.404 194.73 215.594 195.355 215.594 196.135C215.594 197.035 215.309 197.765 214.739 198.325C214.169 198.875 213.274 199.15 212.054 199.15C211.574 199.15 211.074 199.095 210.554 198.985C210.044 198.865 209.484 198.665 208.874 198.385L209.429 196.84C209.989 197.08 210.464 197.25 210.854 197.35C211.254 197.44 211.644 197.485 212.024 197.485ZM216.353 190.525V188.8H223.853V190.525H221.003V199H219.203V190.525H216.353ZM227.263 199H225.463V188.8H227.263V199ZM230.078 199V188.8H231.728C232.518 189.83 233.268 190.92 233.978 192.07C234.688 193.21 235.333 194.385 235.913 195.595L235.778 192.55V188.8H237.503V199H235.853C235.213 197.74 234.548 196.475 233.858 195.205C233.178 193.925 232.453 192.72 231.683 191.59L231.803 195.1V199H230.078ZM243.167 194.8C243.167 195.96 242.912 197.085 242.402 198.175C241.902 199.265 241.142 200.305 240.122 201.295L238.922 200.17C239.782 199.3 240.407 198.43 240.797 197.56C241.197 196.69 241.397 195.77 241.397 194.8V194.245C241.397 193.265 241.197 192.345 240.797 191.485C240.407 190.615 239.782 189.745 238.922 188.875L240.122 187.75C241.142 188.74 241.902 189.78 242.402 190.87C242.912 191.96 243.167 193.085 243.167 194.245V194.8Z" fill="#FF0E12"/>
<defs>
<filter id="filter0_d_1_49" x="83.5402" y="79" width="545.46" height="393" filterUnits="userSpaceOnUse" color-interpolation-filters="sRGB">
<feFlood flood-opacity="0" result="BackgroundImageFix"/>
<feColorMatrix in="SourceAlpha" type="matrix" values="0 0 0 0 0 0 0 0 0 0 0 0 0 0 0 0 0 0 127 0" result="hardAlpha"/>
<feOffset dy="4"/>
<feGaussianBlur stdDeviation="2"/>
<feComposite in2="hardAlpha" operator="out"/>
<feColorMatrix type="matrix" values="0 0 0 0 0 0 0 0 0 0 0 0 0 0 0 0 0 0 0.25 0"/>
<feBlend mode="normal" in2="BackgroundImageFix" result="effect1_dropShadow_1_49"/>
<feBlend mode="normal" in="SourceGraphic" in2="effect1_dropShadow_1_49" result="shape"/>
</filter>
</defs>
</svg>
