<svg width="462" height="143" viewBox="0 0 462 143" fill="none" xmlns="http://www.w3.org/2000/svg">
<g filter="url(#filter0_d_18_185)">
<g clip-path="url(#clip0_18_185)">
<path d="M72.0429 76.5257L67.4363 60.7597M67.1083 31.9499L55.7975 48.6141M52.6205 37.741L70.2853 42.823M85.006 47.058C76.6769 59.3292 59.3799 66.2432 46.3719 62.5009C33.3639 58.7586 29.5709 45.7772 37.8999 33.506C46.2289 21.2348 63.526 14.3207 76.5339 18.063C89.5419 21.8053 93.335 34.7868 85.006 47.058Z" stroke="#FD0000" stroke-width="4" stroke-linecap="round" stroke-linejoin="round"/>
</g>
<path d="M65.5286 41.5012L79.2961 49.2569V118.823L65.5286 89.7589V41.5012Z" fill="#00C4FF"/>
<path d="M62.1567 54.8165L65.2597 41.8004L109.411 75.2312L99.1152 85.1475L62.1567 54.8165Z" fill="#00C4FF"/>
<path d="M130.743 49.5624L130.714 63.9667L99.7531 85.8979L91.5729 74.3692L130.743 49.5624Z" fill="#00C4FF"/>
<path d="M120.417 69.6013L131.099 49.5624L132.917 107.283L120.417 134.946V69.6013Z" fill="#00C4FF"/>
</g>
<g filter="url(#filter1_d_18_185)">
<path d="M315.832 98.7655C315.832 99.5293 316.192 100.229 316.752 100.855C317.312 101.48 318.102 102.07 319.046 102.628C320.935 103.744 323.535 104.791 326.413 105.764C330.476 107.138 335.167 108.391 339.305 109.495C341.027 109.955 342.653 110.389 344.098 110.795C346.583 111.495 348.497 112.103 349.494 112.616C349.715 112.73 349.87 112.828 349.97 112.909C349.884 112.954 349.755 113.008 349.57 113.066C348.454 113.416 346.009 113.701 341.752 113.894C337.519 114.086 331.551 114.185 323.438 114.185C317.245 114.185 311.656 112.275 307.628 109.211C303.599 106.148 301.151 101.952 301.151 97.356C301.151 92.7605 303.599 88.5643 307.628 85.5007C311.655 82.4382 317.239 80.529 323.429 80.5272C331.138 80.7965 336.8 81.1412 340.808 81.5561C342.813 81.7636 344.397 81.988 345.613 82.2274C346.838 82.4686 347.657 82.7192 348.153 82.9662C348.401 83.0898 348.536 83.1969 348.602 83.2741C348.634 83.3103 348.645 83.3338 348.648 83.3439C348.651 83.3523 348.652 83.3562 348.651 83.3607C348.65 83.373 348.639 83.4357 348.538 83.5533C348.439 83.6693 348.279 83.8076 348.045 83.9649C347.089 84.6062 345.262 85.3343 342.879 86.1423C341.041 86.7651 338.888 87.4303 336.619 88.1314C333.094 89.2206 329.288 90.3965 325.951 91.6345C323.198 92.656 320.71 93.7378 318.903 94.8782C318 95.4482 317.244 96.0469 316.709 96.6785C316.173 97.311 315.832 98.0097 315.832 98.7655Z" fill="#2262ED" stroke="#01FFD5"/>
<path d="M357.79 123.477C357.584 123.481 357.431 123.408 357.288 123.237C357.126 123.043 356.977 122.717 356.864 122.23C356.637 121.258 356.593 119.846 356.662 118.155C356.731 116.476 356.908 114.567 357.102 112.62C357.136 112.28 357.17 111.939 357.205 111.598C357.367 109.991 357.529 108.382 357.637 106.895C357.768 105.097 357.823 103.445 357.699 102.162C357.636 101.522 357.527 100.946 357.344 100.479C357.163 100.017 356.885 99.5976 356.443 99.3773C355.988 99.1504 355.481 99.1941 354.976 99.4031C354.476 99.6099 353.925 99.9981 353.313 100.557C352.176 101.594 350.744 103.301 348.943 105.818C346.442 102.072 341.69 100.206 336.998 99.2833C334.225 98.7381 331.423 98.5127 329.02 98.4385C334.263 97.5168 343.008 95.8707 356.583 92.9808C359.328 92.9474 361.934 94.5326 363.924 97.2404C365.924 99.9613 367.264 103.775 367.44 108.036C367.615 112.297 366.59 116.155 364.817 118.947C363.042 121.741 360.553 123.425 357.79 123.477Z" fill="#2262ED" stroke="#0FDFF6"/>
</g>
<g filter="url(#filter2_d_18_185)">
<path d="M173.836 89.5162H188.304V124.625L173.836 115.272V89.5162Z" fill="#0FACD4"/>
</g>
<g filter="url(#filter3_d_18_185)">
<path d="M175.538 91.5778L188.478 89.5162L238.942 114.613L211.703 114.613L175.538 91.5778Z" fill="#0FACD4"/>
</g>
<g filter="url(#filter4_d_18_185)">
<path d="M212.985 88.8384L227.453 80.0272V114.594H212.985V88.8384Z" fill="#0FACD4"/>
</g>
<g filter="url(#filter5_d_18_185)">
<path d="M249.697 109.094C247.616 115.658 299.247 120.436 259.781 116.244C246.366 114.441 233.602 107.919 235.682 101.355C237.763 94.7912 250.325 90.9312 263.74 92.7335C305.501 98.344 251.777 102.53 249.697 109.094Z" fill="#05F1E5"/>
<path d="M295.786 114.534C297.462 119.06 267.167 121.317 261.91 121.528C296.819 132.967 290.259 94.3992 288.582 89.8734C286.905 85.3476 221.057 82.3083 292.093 83.7048C297.35 83.4942 294.109 110.008 295.786 114.534Z" fill="#05F1E5"/>
</g>
<g filter="url(#filter6_d_18_185)">
<path d="M121.75 109.513C119.669 116.077 171.3 120.855 131.834 116.662C118.419 114.86 105.655 108.337 107.735 101.774C109.816 95.2098 122.378 91.3498 135.793 93.1521C177.554 98.7626 123.83 102.949 121.75 109.513Z" fill="#05F1E5"/>
<path d="M167.839 114.952C169.515 119.478 139.22 121.736 133.963 121.947C168.872 133.386 162.311 94.8178 160.635 90.292C158.958 85.7662 93.1103 82.7269 164.145 84.1234C169.403 83.9128 166.162 110.427 167.839 114.952Z" fill="#05F1E5"/>
</g>
<path d="M388.053 84.7117L391.577 117.868L371.647 120.658L404.498 120.658L363.093 82.7194L375.426 87.9846L388.053 84.7117Z" fill="#17FBFF"/>
<path d="M386.548 79.3746C386.548 83.8564 382.162 78.4498 376.752 78.4498C371.341 78.4498 366.955 83.5718 366.955 79.3746C366.955 77.2923 371.341 75.6042 376.752 75.6042C382.162 75.6042 386.548 77.2923 386.548 79.3746Z" fill="#17FBFF"/>
<path d="M366.846 80.7959C367.07 76.3154 371.185 81.7707 376.594 81.8328C382.003 81.8948 386.643 76.8245 386.434 81.0205C386.33 83.1023 381.861 84.7395 376.452 84.6775C371.043 84.6155 366.743 82.8776 366.846 80.7959Z" fill="#17FBFF"/>
<g filter="url(#filter7_d_18_185)">
<path d="M411.698 88.9253C411.698 99.9467 451.158 118.812 426.359 119.947C410.695 119.947 397.997 111.012 397.997 99.991C397.997 88.9696 410.99 77.9479 426.359 80.035C451.432 83.4398 411.698 77.9039 411.698 88.9253Z" fill="#0FACD4"/>
<path d="M438.488 107.926C438.488 96.9251 401.997 80.9266 426.811 79.7937C442.485 79.7937 455.19 88.7119 455.19 99.7131C455.19 110.714 439.465 122.535 424.368 119.632C396.87 114.346 438.488 118.927 438.488 107.926Z" fill="#0FACD4"/>
</g>
<defs>
<filter id="filter0_d_18_185" x="0.560852" y="0.413895" width="143.307" height="142.532" filterUnits="userSpaceOnUse" color-interpolation-filters="sRGB">
<feFlood flood-opacity="0" result="BackgroundImageFix"/>
<feColorMatrix in="SourceAlpha" type="matrix" values="0 0 0 0 0 0 0 0 0 0 0 0 0 0 0 0 0 0 127 0" result="hardAlpha"/>
<feOffset dy="4"/>
<feGaussianBlur stdDeviation="2"/>
<feComposite in2="hardAlpha" operator="out"/>
<feColorMatrix type="matrix" values="0 0 0 0 0 0 0 0 0 0 0 0 0 0 0 0 0 0 0.25 0"/>
<feBlend mode="normal" in2="BackgroundImageFix" result="effect1_dropShadow_18_185"/>
<feBlend mode="normal" in="SourceGraphic" in2="effect1_dropShadow_18_185" result="shape"/>
</filter>
<filter id="filter1_d_18_185" x="296.651" y="80.0272" width="75.9365" height="52.5982" filterUnits="userSpaceOnUse" color-interpolation-filters="sRGB">
<feFlood flood-opacity="0" result="BackgroundImageFix"/>
<feColorMatrix in="SourceAlpha" type="matrix" values="0 0 0 0 0 0 0 0 0 0 0 0 0 0 0 0 0 0 127 0" result="hardAlpha"/>
<feOffset dy="4"/>
<feGaussianBlur stdDeviation="2"/>
<feComposite in2="hardAlpha" operator="out"/>
<feColorMatrix type="matrix" values="0 0 0 0 0 0 0 0 0 0 0 0 0 0 0 0 0 0 0.25 0"/>
<feBlend mode="normal" in2="BackgroundImageFix" result="effect1_dropShadow_18_185"/>
<feBlend mode="normal" in="SourceGraphic" in2="effect1_dropShadow_18_185" result="shape"/>
</filter>
<filter id="filter2_d_18_185" x="169.836" y="89.5162" width="22.468" height="43.1092" filterUnits="userSpaceOnUse" color-interpolation-filters="sRGB">
<feFlood flood-opacity="0" result="BackgroundImageFix"/>
<feColorMatrix in="SourceAlpha" type="matrix" values="0 0 0 0 0 0 0 0 0 0 0 0 0 0 0 0 0 0 127 0" result="hardAlpha"/>
<feOffset dy="4"/>
<feGaussianBlur stdDeviation="2"/>
<feComposite in2="hardAlpha" operator="out"/>
<feColorMatrix type="matrix" values="0 0 0 0 0 0 0 0 0 0 0 0 0 0 0 0 0 0 0.25 0"/>
<feBlend mode="normal" in2="BackgroundImageFix" result="effect1_dropShadow_18_185"/>
<feBlend mode="normal" in="SourceGraphic" in2="effect1_dropShadow_18_185" result="shape"/>
</filter>
<filter id="filter3_d_18_185" x="171.538" y="89.5162" width="71.4037" height="33.0971" filterUnits="userSpaceOnUse" color-interpolation-filters="sRGB">
<feFlood flood-opacity="0" result="BackgroundImageFix"/>
<feColorMatrix in="SourceAlpha" type="matrix" values="0 0 0 0 0 0 0 0 0 0 0 0 0 0 0 0 0 0 127 0" result="hardAlpha"/>
<feOffset dy="4"/>
<feGaussianBlur stdDeviation="2"/>
<feComposite in2="hardAlpha" operator="out"/>
<feColorMatrix type="matrix" values="0 0 0 0 0 0 0 0 0 0 0 0 0 0 0 0 0 0 0.25 0"/>
<feBlend mode="normal" in2="BackgroundImageFix" result="effect1_dropShadow_18_185"/>
<feBlend mode="normal" in="SourceGraphic" in2="effect1_dropShadow_18_185" result="shape"/>
</filter>
<filter id="filter4_d_18_185" x="208.985" y="80.0272" width="22.468" height="42.567" filterUnits="userSpaceOnUse" color-interpolation-filters="sRGB">
<feFlood flood-opacity="0" result="BackgroundImageFix"/>
<feColorMatrix in="SourceAlpha" type="matrix" values="0 0 0 0 0 0 0 0 0 0 0 0 0 0 0 0 0 0 127 0" result="hardAlpha"/>
<feOffset dy="4"/>
<feGaussianBlur stdDeviation="2"/>
<feComposite in2="hardAlpha" operator="out"/>
<feColorMatrix type="matrix" values="0 0 0 0 0 0 0 0 0 0 0 0 0 0 0 0 0 0 0.25 0"/>
<feBlend mode="normal" in2="BackgroundImageFix" result="effect1_dropShadow_18_185"/>
<feBlend mode="normal" in="SourceGraphic" in2="effect1_dropShadow_18_185" result="shape"/>
</filter>
<filter id="filter5_d_18_185" x="225.884" y="75.6042" width="97.3668" height="62.1762" filterUnits="userSpaceOnUse" color-interpolation-filters="sRGB">
<feFlood flood-opacity="0" result="BackgroundImageFix"/>
<feColorMatrix in="SourceAlpha" type="matrix" values="0 0 0 0 0 0 0 0 0 0 0 0 0 0 0 0 0 0 127 0" result="hardAlpha"/>
<feOffset dy="4"/>
<feGaussianBlur stdDeviation="2"/>
<feComposite in2="hardAlpha" operator="out"/>
<feColorMatrix type="matrix" values="0 0 0 0 0 0 0 0 0 0 0 0 0 0 0 0 0 0 0.25 0"/>
<feBlend mode="normal" in2="BackgroundImageFix" result="effect1_dropShadow_18_185"/>
<feBlend mode="normal" in="SourceGraphic" in2="effect1_dropShadow_18_185" result="shape"/>
</filter>
<filter id="filter6_d_18_185" x="97.9365" y="76.0228" width="97.3668" height="62.1762" filterUnits="userSpaceOnUse" color-interpolation-filters="sRGB">
<feFlood flood-opacity="0" result="BackgroundImageFix"/>
<feColorMatrix in="SourceAlpha" type="matrix" values="0 0 0 0 0 0 0 0 0 0 0 0 0 0 0 0 0 0 127 0" result="hardAlpha"/>
<feOffset dy="4"/>
<feGaussianBlur stdDeviation="2"/>
<feComposite in2="hardAlpha" operator="out"/>
<feColorMatrix type="matrix" values="0 0 0 0 0 0 0 0 0 0 0 0 0 0 0 0 0 0 0.25 0"/>
<feBlend mode="normal" in2="BackgroundImageFix" result="effect1_dropShadow_18_185"/>
<feBlend mode="normal" in="SourceGraphic" in2="effect1_dropShadow_18_185" result="shape"/>
</filter>
<filter id="filter7_d_18_185" x="393.997" y="79.7787" width="65.2091" height="48.2991" filterUnits="userSpaceOnUse" color-interpolation-filters="sRGB">
<feFlood flood-opacity="0" result="BackgroundImageFix"/>
<feColorMatrix in="SourceAlpha" type="matrix" values="0 0 0 0 0 0 0 0 0 0 0 0 0 0 0 0 0 0 127 0" result="hardAlpha"/>
<feOffset dy="4"/>
<feGaussianBlur stdDeviation="2"/>
<feComposite in2="hardAlpha" operator="out"/>
<feColorMatrix type="matrix" values="0 0 0 0 0 0 0 0 0 0 0 0 0 0 0 0 0 0 0.25 0"/>
<feBlend mode="normal" in2="BackgroundImageFix" result="effect1_dropShadow_18_185"/>
<feBlend mode="normal" in="SourceGraphic" in2="effect1_dropShadow_18_185" result="shape"/>
</filter>
<clipPath id="clip0_18_185">
<rect width="73.525" height="80.561" fill="white" transform="matrix(0.96102 0.276477 -0.5616 0.827409 49.8039 0.413895)"/>
</clipPath>
</defs>
</svg>
