<svg width="503" height="155" viewBox="0 0 503 155" fill="none" xmlns="http://www.w3.org/2000/svg">
<path fill-rule="evenodd" clip-rule="evenodd" d="M136.821 46.8602L149.313 59.6342L122.309 87.2486L151.395 116.992L138.903 129.766L97.3257 87.2486L136.821 46.8602Z" fill="#55C6FF"/>
<path fill-rule="evenodd" clip-rule="evenodd" d="M108.139 16.097L95.6852 3.60545L66.6865 32.6912L37.6878 3.60544L25.2336 16.097L66.6865 57.6744L108.139 16.097Z" fill="black"/>
<path fill-rule="evenodd" clip-rule="evenodd" d="M104.534 18.1789L92.3155 5.6873L65.9013 32.6912L37.4513 3.60544L25.2327 16.097L65.9013 57.6744L104.534 18.1789Z" fill="#55C6FF"/>
<path fill-rule="evenodd" clip-rule="evenodd" d="M147.858 62.2398C151.803 58.2953 151.803 51.9 147.858 47.9554L144.797 44.8945L110.092 44.5035L109.086 9.18359L107.046 7.14297C103.101 3.19845 96.7059 3.19845 92.7614 7.14297L92.7769 61.8188L147.858 62.2398Z" fill="#9A71FF"/>
<path d="M109.085 15.3044L109.086 9.18285L107.045 7.14223C103.1 3.19771 96.7051 3.19771 92.7606 7.14223L92.76 31.6294L109.085 15.3044Z" fill="#584DE2"/>
<path d="M139.694 45.9152L145.815 45.9146L147.856 47.9552C151.801 51.8998 151.801 58.2951 147.856 62.2396L123.369 62.2402L139.694 45.9152Z" fill="#584DE2"/>
<path fill-rule="evenodd" clip-rule="evenodd" d="M46.8603 136.82L59.6344 149.312L87.2487 122.308L116.992 151.393L129.766 138.902L87.2487 97.3245L46.8603 136.82Z" fill="#24559B"/>
<path fill-rule="evenodd" clip-rule="evenodd" d="M16.0984 108.138L3.60678 95.6837L32.6926 66.685L3.60678 37.6863L16.0984 25.2321L57.6758 66.685L16.0984 108.138Z" fill="black"/>
<path fill-rule="evenodd" clip-rule="evenodd" d="M18.1802 104.534L5.68863 92.3154L32.6926 65.9013L3.60678 37.4513L16.0984 25.2327L57.6758 65.9013L18.1802 104.534Z" fill="#24559B"/>
<path fill-rule="evenodd" clip-rule="evenodd" d="M62.2424 147.856V147.856C58.2979 151.8 51.9025 151.8 47.958 147.856L44.8971 144.795L44.5061 110.09L9.18616 109.084L7.14553 107.043C3.20101 103.099 3.20102 96.7033 7.14553 92.7588V92.7588L61.8214 92.7744L62.2424 147.856Z" fill="#374151"/>
<path d="M15.3044 109.084L9.18285 109.084L7.14223 107.044C3.19771 103.099 3.19771 96.7039 7.14223 92.7594L31.6294 92.7588L15.3044 109.084Z" fill="#9A71FF"/>
<path d="M45.9152 139.693L45.9146 145.814L47.9552 147.855C51.8998 151.799 58.2951 151.799 62.2396 147.855L62.2402 123.368L45.9152 139.693Z" fill="#9A71FF"/>
<path d="M226.07 103H216.016V67C216.016 66.2969 215.875 65.6406 215.594 65.0312C215.336 64.4219 214.973 63.8945 214.504 63.4492C214.059 62.9805 213.531 62.6172 212.922 62.3594C212.312 62.1016 211.656 61.9727 210.953 61.9727C210.25 61.9727 209.594 62.1016 208.984 62.3594C208.375 62.6172 207.836 62.9805 207.367 63.4492C206.922 63.8945 206.57 64.4219 206.312 65.0312C206.055 65.6406 205.926 66.2969 205.926 67V103H195.836V67C195.836 66.2969 195.707 65.6406 195.449 65.0312C195.191 64.4219 194.828 63.8945 194.359 63.4492C193.914 62.9805 193.387 62.6172 192.777 62.3594C192.168 62.1016 191.512 61.9727 190.809 61.9727C190.105 61.9727 189.449 62.1016 188.84 62.3594C188.23 62.6172 187.691 62.9805 187.223 63.4492C186.777 63.8945 186.426 64.4219 186.168 65.0312C185.91 65.6406 185.781 66.2969 185.781 67V103H175.691V67C175.691 64.9141 176.078 62.957 176.852 61.1289C177.648 59.2773 178.727 57.6719 180.086 56.3125C181.469 54.9297 183.074 53.8516 184.902 53.0781C186.754 52.2812 188.723 51.8828 190.809 51.8828C192.684 51.8828 194.488 52.2227 196.223 52.9023C197.957 53.5586 199.516 54.5195 200.898 55.7852C202.281 54.5195 203.828 53.5586 205.539 52.9023C207.273 52.2227 209.078 51.8828 210.953 51.8828C213.039 51.8828 214.996 52.2812 216.824 53.0781C218.676 53.8516 220.281 54.9297 221.641 56.3125C223.023 57.6719 224.102 59.2773 224.875 61.1289C225.672 62.957 226.07 64.9141 226.07 67V103ZM270.121 103H267.801L264.074 97.832C263.16 98.6523 262.188 99.4258 261.156 100.152C260.148 100.855 259.082 101.477 257.957 102.016C256.832 102.531 255.672 102.941 254.477 103.246C253.305 103.551 252.109 103.703 250.891 103.703C248.242 103.703 245.746 103.258 243.402 102.367C241.082 101.477 239.043 100.188 237.285 98.5C235.551 96.7891 234.18 94.7031 233.172 92.2422C232.164 89.7812 231.66 86.9805 231.66 83.8398C231.66 80.9102 232.164 78.2266 233.172 75.7891C234.18 73.3281 235.551 71.2188 237.285 69.4609C239.043 67.7031 241.082 66.3438 243.402 65.3828C245.746 64.3984 248.242 63.9062 250.891 63.9062C252.109 63.9062 253.316 64.0586 254.512 64.3633C255.707 64.668 256.867 65.0898 257.992 65.6289C259.117 66.168 260.184 66.8008 261.191 67.5273C262.223 68.2539 263.184 69.0391 264.074 69.8828L267.801 65.418H270.121V103ZM260.453 83.8398C260.453 82.5273 260.195 81.2617 259.68 80.043C259.188 78.8008 258.508 77.7109 257.641 76.7734C256.773 75.8125 255.754 75.0508 254.582 74.4883C253.434 73.9023 252.203 73.6094 250.891 73.6094C249.578 73.6094 248.336 73.832 247.164 74.2773C246.016 74.7227 245.008 75.3789 244.141 76.2461C243.297 77.1133 242.629 78.1914 242.137 79.4805C241.645 80.7461 241.398 82.1992 241.398 83.8398C241.398 85.4805 241.645 86.9453 242.137 88.2344C242.629 89.5 243.297 90.5664 244.141 91.4336C245.008 92.3008 246.016 92.957 247.164 93.4023C248.336 93.8477 249.578 94.0703 250.891 94.0703C252.203 94.0703 253.434 93.7891 254.582 93.2266C255.754 92.6406 256.773 91.8789 257.641 90.9414C258.508 89.9805 259.188 88.8906 259.68 87.6719C260.195 86.4297 260.453 85.1523 260.453 83.8398ZM287.066 103H277.469V65.3477H279.789L282.953 69.0039C284.5 67.5977 286.246 66.5195 288.191 65.7695C290.16 64.9961 292.211 64.6094 294.344 64.6094C296.641 64.6094 298.809 65.0547 300.848 65.9453C302.887 66.8125 304.668 68.0195 306.191 69.5664C307.715 71.0898 308.91 72.8828 309.777 74.9453C310.668 76.9844 311.113 79.1641 311.113 81.4844V103H301.516V81.4844C301.516 80.5 301.328 79.5742 300.953 78.707C300.578 77.8164 300.062 77.043 299.406 76.3867C298.75 75.7305 297.988 75.2148 297.121 74.8398C296.254 74.4648 295.328 74.2773 294.344 74.2773C293.336 74.2773 292.387 74.4648 291.496 74.8398C290.605 75.2148 289.832 75.7305 289.176 76.3867C288.52 77.043 288.004 77.8164 287.629 78.707C287.254 79.5742 287.066 80.5 287.066 81.4844V103ZM354.426 103H352.105L348.379 97.832C347.465 98.6523 346.492 99.4258 345.461 100.152C344.453 100.855 343.387 101.477 342.262 102.016C341.137 102.531 339.977 102.941 338.781 103.246C337.609 103.551 336.414 103.703 335.195 103.703C332.547 103.703 330.051 103.258 327.707 102.367C325.387 101.477 323.348 100.188 321.59 98.5C319.855 96.7891 318.484 94.7031 317.477 92.2422C316.469 89.7812 315.965 86.9805 315.965 83.8398C315.965 80.9102 316.469 78.2266 317.477 75.7891C318.484 73.3281 319.855 71.2188 321.59 69.4609C323.348 67.7031 325.387 66.3438 327.707 65.3828C330.051 64.3984 332.547 63.9062 335.195 63.9062C336.414 63.9062 337.621 64.0586 338.816 64.3633C340.012 64.668 341.172 65.0898 342.297 65.6289C343.422 66.168 344.488 66.8008 345.496 67.5273C346.527 68.2539 347.488 69.0391 348.379 69.8828L352.105 65.418H354.426V103ZM344.758 83.8398C344.758 82.5273 344.5 81.2617 343.984 80.043C343.492 78.8008 342.812 77.7109 341.945 76.7734C341.078 75.8125 340.059 75.0508 338.887 74.4883C337.738 73.9023 336.508 73.6094 335.195 73.6094C333.883 73.6094 332.641 73.832 331.469 74.2773C330.32 74.7227 329.312 75.3789 328.445 76.2461C327.602 77.1133 326.934 78.1914 326.441 79.4805C325.949 80.7461 325.703 82.1992 325.703 83.8398C325.703 85.4805 325.949 86.9453 326.441 88.2344C326.934 89.5 327.602 90.5664 328.445 91.4336C329.312 92.3008 330.32 92.957 331.469 93.4023C332.641 93.8477 333.883 94.0703 335.195 94.0703C336.508 94.0703 337.738 93.7891 338.887 93.2266C340.059 92.6406 341.078 91.8789 341.945 90.9414C342.812 89.9805 343.492 88.8906 343.984 87.6719C344.5 86.4297 344.758 85.1523 344.758 83.8398ZM388.562 83.8398C388.562 82.5273 388.305 81.2617 387.789 80.043C387.297 78.8008 386.617 77.7109 385.75 76.7734C384.883 75.8125 383.863 75.0508 382.691 74.4883C381.543 73.9023 380.312 73.6094 379 73.6094C377.688 73.6094 376.445 73.832 375.273 74.2773C374.125 74.7227 373.117 75.3789 372.25 76.2461C371.406 77.1133 370.738 78.1914 370.246 79.4805C369.754 80.7461 369.508 82.1992 369.508 83.8398C369.508 85.4102 369.754 86.8281 370.246 88.0938C370.738 89.3359 371.406 90.4023 372.25 91.293C373.117 92.1836 374.125 92.875 375.273 93.3672C376.445 93.8359 377.688 94.0703 379 94.0703C380.312 94.0703 381.543 93.7891 382.691 93.2266C383.863 92.6406 384.883 91.8789 385.75 90.9414C386.617 89.9805 387.297 88.8906 387.789 87.6719C388.305 86.4297 388.562 85.1523 388.562 83.8398ZM398.23 98.2539C398.23 100.902 397.727 103.387 396.719 105.707C395.711 108.027 394.328 110.055 392.57 111.789C390.836 113.523 388.797 114.895 386.453 115.902C384.133 116.91 381.648 117.414 379 117.414L374.184 117.344V107.746L378.93 107.816C380.43 107.816 381.707 107.617 382.762 107.219C383.816 106.844 384.707 106.316 385.434 105.637C386.16 104.98 386.734 104.219 387.156 103.352C387.602 102.484 387.953 101.57 388.211 100.609C387.836 101.219 387.297 101.723 386.594 102.121C385.891 102.496 385.105 102.801 384.238 103.035C383.395 103.293 382.504 103.469 381.566 103.562C380.652 103.656 379.797 103.703 379 103.703C376.352 103.703 373.855 103.246 371.512 102.332C369.191 101.418 367.152 100.117 365.395 98.4297C363.66 96.7188 362.289 94.6328 361.281 92.1719C360.273 89.7109 359.77 86.9336 359.77 83.8398C359.77 81.0039 360.273 78.3672 361.281 75.9297C362.289 73.4922 363.66 71.3828 365.395 69.6016C367.152 67.8203 369.191 66.4258 371.512 65.418C373.855 64.4102 376.352 63.9062 379 63.9062C380.219 63.9062 381.426 64.0586 382.621 64.3633C383.816 64.668 384.977 65.0898 386.102 65.6289C387.227 66.168 388.293 66.8008 389.301 67.5273C390.332 68.2539 391.293 69.0391 392.184 69.8828L395.91 65.418H398.23V98.2539ZM416.898 55.1172C416.898 56.0078 416.723 56.8398 416.371 57.6133C416.043 58.3867 415.586 59.0664 415 59.6523C414.414 60.2148 413.723 60.6719 412.926 61.0234C412.152 61.3516 411.32 61.5156 410.43 61.5156C409.539 61.5156 408.695 61.3516 407.898 61.0234C407.125 60.6719 406.445 60.2148 405.859 59.6523C405.297 59.0664 404.84 58.3867 404.488 57.6133C404.16 56.8398 403.996 56.0078 403.996 55.1172C403.996 54.25 404.16 53.4297 404.488 52.6562C404.84 51.8594 405.297 51.1797 405.859 50.6172C406.445 50.0312 407.125 49.5742 407.898 49.2461C408.695 48.8945 409.539 48.7188 410.43 48.7188C411.32 48.7188 412.152 48.8945 412.926 49.2461C413.723 49.5742 414.414 50.0312 415 50.6172C415.586 51.1797 416.043 51.8594 416.371 52.6562C416.723 53.4297 416.898 54.25 416.898 55.1172ZM415.246 103H405.578V65.3477H415.246V103ZM458.98 83.8398C458.98 86.6523 458.477 89.2773 457.469 91.7148C456.461 94.1289 455.09 96.2266 453.355 98.0078C451.621 99.7656 449.582 101.16 447.238 102.191C444.918 103.199 442.422 103.703 439.75 103.703C437.102 103.703 434.605 103.199 432.262 102.191C429.941 101.16 427.902 99.7656 426.145 98.0078C424.41 96.2266 423.039 94.1289 422.031 91.7148C421.023 89.2773 420.52 86.6523 420.52 83.8398C420.52 80.9805 421.023 78.332 422.031 75.8945C423.039 73.457 424.41 71.3594 426.145 69.6016C427.902 67.8203 429.941 66.4258 432.262 65.418C434.605 64.4102 437.102 63.9062 439.75 63.9062C442.422 63.9062 444.918 64.3867 447.238 65.3477C449.582 66.2852 451.621 67.6328 453.355 69.3906C455.09 71.125 456.461 73.2227 457.469 75.6836C458.477 78.1211 458.98 80.8398 458.98 83.8398ZM449.312 83.8398C449.312 82.293 449.055 80.8984 448.539 79.6562C448.047 78.3906 447.367 77.3125 446.5 76.4219C445.633 75.5078 444.613 74.8164 443.441 74.3477C442.293 73.8555 441.062 73.6094 439.75 73.6094C438.438 73.6094 437.195 73.8555 436.023 74.3477C434.875 74.8164 433.867 75.5078 433 76.4219C432.156 77.3125 431.488 78.3906 430.996 79.6562C430.504 80.8984 430.258 82.293 430.258 83.8398C430.258 85.293 430.504 86.6406 430.996 87.8828C431.488 89.125 432.156 90.2031 433 91.1172C433.867 92.0312 434.875 92.7578 436.023 93.2969C437.195 93.8125 438.438 94.0703 439.75 94.0703C441.062 94.0703 442.293 93.8242 443.441 93.332C444.613 92.8398 445.633 92.1484 446.5 91.2578C447.367 90.3672 448.047 89.2891 448.539 88.0234C449.055 86.7578 449.312 85.3633 449.312 83.8398Z" fill="url(#paint0_linear_414_83)"/>
<defs>
<linearGradient id="paint0_linear_414_83" x1="171" y1="76.5" x2="461" y2="76.5" gradientUnits="userSpaceOnUse">
<stop offset="0.0659998" stop-color="#31BDAD"/>
<stop offset="0.481" stop-color="#3B82F6"/>
<stop offset="1" stop-color="#4338CA"/>
</linearGradient>
</defs>
</svg>
