<svg width="477" height="140" viewBox="0 0 477 140" fill="none" xmlns="http://www.w3.org/2000/svg">
<path d="M1 20C1 8.9543 9.95431 0 21 0H274V140H21C9.9543 140 1 131.046 1 120V20Z" fill="#020202"/>
<g filter="url(#filter0_d_28_64)">
<path d="M29 104.875C29.5 104.875 29.9167 104.917 30.25 105C31.5 105.167 32.125 106.167 32.125 108H4.25V104.875C6.33333 104.875 7.95833 104.708 9.125 104.375C11.5417 103.708 12.75 101.5 12.75 97.75V57.75H4.25V54.625H24L24.625 65.75C25.2083 64.5 25.875 63.25 26.625 62C30.4583 56.0833 35.75 53.125 42.5 53.125C43.9167 53.125 45.375 53.375 46.875 53.875C51.9583 55.5417 55.375 59.5417 57.125 65.875C57.625 64.7083 58.2083 63.5833 58.875 62.5C62.7083 56.25 68.0833 53.125 75 53.125C77.8333 53.125 80.5 53.8333 83 55.25C88.5833 58.6667 91.375 64.625 91.375 73.125V104.875H96.875C97.4583 104.875 97.9583 104.917 98.375 105C99.4583 105.167 100 106.167 100 108H72V104.875C74.25 104.875 75.875 104.667 76.875 104.25C78.5417 103.5 79.375 101.333 79.375 97.75V71.75C79.375 69.3333 79 67.125 78.25 65.125C76.6667 60.875 73.9167 58.75 70 58.75C68.6667 58.75 67.3333 59.0833 66 59.75C61.75 62 59.0833 66.25 58 72.5V73.375V104.875H62.25C62.8333 104.875 63.3333 104.917 63.75 105C64.8333 105.167 65.375 106.167 65.375 108H38.625V104.875C40.7917 104.875 42.4167 104.667 43.5 104.25C45.25 103.5 46.125 101.333 46.125 97.75V71.75C46.125 69.25 45.7917 67.0417 45.125 65.125C43.5417 60.9583 40.9167 58.875 37.25 58.875C35.6667 58.875 34.0417 59.375 32.375 60.375C27.9583 63.2083 25.4583 68 24.875 74.75L24.75 104.875H29ZM151.375 109.25C145.125 109.167 141.375 105.417 140.125 98C139.458 99.6667 138.5 101.25 137.25 102.75C133.417 107.083 128.333 109.25 122 109.25C119.417 109.25 117.042 108.833 114.875 108C109.125 105.75 106.25 101.292 106.25 94.625C106.25 93.375 106.375 92.1667 106.625 91C108.708 82.1667 119.75 77.625 139.75 77.375V69.375C139.667 60.7917 136.25 56.4167 129.5 56.25C127.833 56.25 126.417 56.5417 125.25 57.125C123.667 58.0417 122.333 60.1667 121.25 63.5C121 64.3333 120.792 64.9583 120.625 65.375C119.625 68.125 117.833 69.5 115.25 69.5C114.583 69.5 113.917 69.4167 113.25 69.25C110.75 68.5 109.5 66.7917 109.5 64.125C109.5 62.7083 109.958 61.2917 110.875 59.875C113.958 55.375 120.542 53.125 130.625 53.125C144.542 53.2083 151.583 59.6667 151.75 72.5V98.75C151.833 102.833 152.875 104.958 154.875 105.125C157.458 105.042 159.042 102.042 159.625 96.125L162.875 96.25C162.792 98.1667 162.542 99.875 162.125 101.375C160.792 106.625 157.208 109.25 151.375 109.25ZM127.125 104.125C128.375 104.125 129.667 103.833 131 103.25C135.417 101.333 138.333 97.4583 139.75 91.625V80.75C134.833 80.8333 130.833 81.25 127.75 82C121.75 83.5 118.75 87.0833 118.75 92.75C118.75 93.9167 118.833 95 119 96C119.833 101.417 122.542 104.125 127.125 104.125ZM191.875 104.875C192.458 104.875 192.958 104.917 193.375 105C194.458 105.167 195 106.167 195 108H166.75V104.875C168.833 104.875 170.458 104.708 171.625 104.375C174.042 103.708 175.25 101.5 175.25 97.75V57.75H166.75V54.625H186.5L187.125 65.875C187.958 63.9583 189.042 62.1667 190.375 60.5C194.542 55.5833 199.708 53.125 205.875 53.125C208.792 53.125 211.458 53.7917 213.875 55.125C220.042 58.375 223.125 64.4583 223.125 73.375V104.875H228.5C229.083 104.875 229.583 104.917 230 105C231.083 105.167 231.625 106.167 231.625 108H203.125V104.875C205.208 104.875 206.833 104.708 208 104.375C210 103.625 211 101.417 211 97.75V71.75C211 69.9167 210.792 68.1667 210.375 66.5C208.958 61.5 205.75 59 200.75 59C198.917 59 197.125 59.5 195.375 60.5C190.625 63.25 187.958 68 187.375 74.75L187.25 104.875H191.875Z" fill="white"/>
</g>
<rect x="244" width="145" height="140" rx="20" fill="#19B7C5"/>
<path d="M292.75 109.25C286.5 109.167 282.75 105.417 281.5 98C280.833 99.6667 279.875 101.25 278.625 102.75C274.792 107.083 269.708 109.25 263.375 109.25C260.792 109.25 258.417 108.833 256.25 108C250.5 105.75 247.625 101.292 247.625 94.625C247.625 93.375 247.75 92.1667 248 91C250.083 82.1667 261.125 77.625 281.125 77.375V69.375C281.042 60.7917 277.625 56.4167 270.875 56.25C269.208 56.25 267.792 56.5417 266.625 57.125C265.042 58.0417 263.708 60.1667 262.625 63.5C262.375 64.3333 262.167 64.9583 262 65.375C261 68.125 259.208 69.5 256.625 69.5C255.958 69.5 255.292 69.4167 254.625 69.25C252.125 68.5 250.875 66.7917 250.875 64.125C250.875 62.7083 251.333 61.2917 252.25 59.875C255.333 55.375 261.917 53.125 272 53.125C285.917 53.2083 292.958 59.6667 293.125 72.5V98.75C293.208 102.833 294.25 104.958 296.25 105.125C298.833 105.042 300.417 102.042 301 96.125L304.25 96.25C304.167 98.1667 303.917 99.875 303.5 101.375C302.167 106.625 298.583 109.25 292.75 109.25ZM268.5 104.125C269.75 104.125 271.042 103.833 272.375 103.25C276.792 101.333 279.708 97.4583 281.125 91.625V80.75C276.208 80.8333 272.208 81.25 269.125 82C263.125 83.5 260.125 87.0833 260.125 92.75C260.125 93.9167 260.208 95 260.375 96C261.208 101.417 263.917 104.125 268.5 104.125Z" fill="white"/>
<rect x="311" width="166" height="140" rx="20" fill="white"/>
<path d="M329.25 73.375C329.25 76.375 329.417 78.9167 329.75 81C330.917 87.5 334.375 90.75 340.125 90.75C341.958 90.75 343.583 90.4583 345 89.875C349.083 87.9583 351.125 82.4167 351.125 73.25C351.125 70.25 350.917 67.6667 350.5 65.5C349.417 59.3333 346 56.25 340.25 56.25C338.583 56.25 337.083 56.5 335.75 57C331.417 58.75 329.25 64.2083 329.25 73.375ZM340.5 53.125C345.417 53.125 349.833 54.2083 353.75 56.375C354.167 54.9583 354.75 53.625 355.5 52.375C357.917 48.4583 361.125 46.5 365.125 46.5C366.292 46.5 367.417 46.7083 368.5 47.125C371.167 48.2083 372.5 50.125 372.5 52.875C372.5 53.125 372.458 53.4167 372.375 53.75C371.958 56 370.625 57.125 368.375 57.125C367.458 57.125 366.5 56.6667 365.5 55.75C364 54.4167 362.708 53.75 361.625 53.75C359.292 53.8333 357.542 55.2917 356.375 58.125C361.042 61.7917 363.417 66.7917 363.5 73.125C363.5 77.875 362.042 82.0833 359.125 85.75C354.542 91.25 348.208 94 340.125 94H339.75L328.125 93.875C327.625 93.875 327.083 93.9167 326.5 94C324.083 94.5 322.875 95.75 322.875 97.75C322.958 100.417 324.667 101.875 328 102.125L352 102.625C353.083 102.625 354.208 102.708 355.375 102.875C364.042 103.958 368.375 108.375 368.375 116.125C368.375 118.458 367.708 120.625 366.375 122.625C362.375 128.875 353.833 132 340.75 132C335.5 132 331 131.25 327.25 129.75C321.667 127.5 318.875 124.083 318.875 119.5C318.875 116.667 320.125 113.917 322.625 111.25C319.375 108.917 317.708 105.625 317.625 101.375C317.625 99.9583 317.875 98.5833 318.375 97.25C319.958 92.8333 323.208 90.625 328.125 90.625C327.375 90.2083 326.625 89.7083 325.875 89.125C319.875 84.7917 316.875 79.5417 316.875 73.375C316.875 68.7083 318.292 64.6667 321.125 61.25C325.625 55.8333 332.083 53.125 340.5 53.125ZM340.75 128.75C344.75 128.75 348.417 128.375 351.75 127.625C358.833 125.958 362.375 123.25 362.375 119.5C362.375 118.75 362.25 118.042 362 117.375C361.167 114.958 357.833 113.75 352 113.75L330.25 113.5C328.583 113.5 327.042 113.25 325.625 112.75C324.042 114.75 323.208 116.792 323.125 118.875C323.125 119.958 323.375 121 323.875 122C326.042 126.5 331.667 128.75 340.75 128.75ZM402.375 104.875C402.958 104.875 403.458 104.917 403.875 105C404.958 105.167 405.5 106.167 405.5 108H375.875V104.875C377.958 104.875 379.583 104.75 380.75 104.5C383.417 103.75 384.75 101.5 384.75 97.75V57.75H375.875V54.625H396.75V104.875H402.375ZM398.125 37.125C398.125 38.375 397.875 39.5417 397.375 40.625C395.958 43.4583 393.583 44.875 390.25 44.875C389.083 44.875 387.958 44.625 386.875 44.125C383.958 42.7917 382.5 40.4583 382.5 37.125C382.5 35.875 382.792 34.6667 383.375 33.5C384.792 30.6667 387.083 29.25 390.25 29.25C391.5 29.25 392.708 29.5417 393.875 30.125C396.708 31.625 398.125 33.9583 398.125 37.125ZM426.375 81.125C426.375 83.875 426.5 86.375 426.75 88.625C427.917 100.292 432.667 106.125 441 106.125C450.417 105.958 455.208 97.4583 455.375 80.625C455.375 77.375 455.208 74.4167 454.875 71.75C453.458 61.4167 448.792 56.25 440.875 56.25C432.042 56.9167 427.208 65.2083 426.375 81.125ZM441.25 53.125C447.417 53.125 452.875 54.75 457.625 58C464.958 63.1667 468.625 70.7917 468.625 80.875C468.625 88.375 466.333 94.75 461.75 100C456.333 106.167 449.292 109.25 440.625 109.25C434.292 109.25 428.708 107.417 423.875 103.75C416.708 98.4167 413.125 90.7083 413.125 80.625C413.125 73.375 415.333 67.25 419.75 62.25C425.167 56.1667 432.333 53.125 441.25 53.125Z" fill="#030303"/>
<defs>
<filter id="filter0_d_28_64" x="0.25" y="53.125" width="235.375" height="64.125" filterUnits="userSpaceOnUse" color-interpolation-filters="sRGB">
<feFlood flood-opacity="0" result="BackgroundImageFix"/>
<feColorMatrix in="SourceAlpha" type="matrix" values="0 0 0 0 0 0 0 0 0 0 0 0 0 0 0 0 0 0 127 0" result="hardAlpha"/>
<feOffset dy="4"/>
<feGaussianBlur stdDeviation="2"/>
<feComposite in2="hardAlpha" operator="out"/>
<feColorMatrix type="matrix" values="0 0 0 0 0 0 0 0 0 0 0 0 0 0 0 0 0 0 0.25 0"/>
<feBlend mode="normal" in2="BackgroundImageFix" result="effect1_dropShadow_28_64"/>
<feBlend mode="normal" in="SourceGraphic" in2="effect1_dropShadow_28_64" result="shape"/>
</filter>
</defs>
</svg>
